<?xml version="1.0" encoding="utf-8" standalone="no"?>
<!DOCTYPE svg PUBLIC "-//W3C//DTD SVG 1.1//EN"
  "http://www.w3.org/Graphics/SVG/1.1/DTD/svg11.dtd">
<svg xmlns:xlink="http://www.w3.org/1999/xlink" width="716.45pt" height="226.194375pt" viewBox="0 0 716.45 226.194375" xmlns="http://www.w3.org/2000/svg" version="1.1">
 <metadata>
  <rdf:RDF xmlns:dc="http://purl.org/dc/elements/1.1/" xmlns:cc="http://creativecommons.org/ns#" xmlns:rdf="http://www.w3.org/1999/02/22-rdf-syntax-ns#">
   <cc:Work>
    <dc:type rdf:resource="http://purl.org/dc/dcmitype/StillImage"/>
    <dc:date>2023-07-30T22:42:20.612087</dc:date>
    <dc:format>image/svg+xml</dc:format>
    <dc:creator>
     <cc:Agent>
      <dc:title>Matplotlib v3.7.2, https://matplotlib.org/</dc:title>
     </cc:Agent>
    </dc:creator>
   </cc:Work>
  </rdf:RDF>
 </metadata>
 <defs>
  <style type="text/css">*{stroke-linejoin: round; stroke-linecap: butt}</style>
 </defs>
 <g id="figure_1">
  <g id="patch_1">
   <path d="M 0 226.194375 
L 716.45 226.194375 
L 716.45 0 
L 0 0 
z
" style="fill: #ffffff"/>
  </g>
  <g id="axes_1">
   <g id="patch_2">
    <path d="M 39.65 188.638125 
L 709.25 188.638125 
L 709.25 22.318125 
L 39.65 22.318125 
z
" style="fill: #ffffff"/>
   </g>
   <g id="matplotlib.axis_1">
    <g id="xtick_1">
     <g id="line2d_1">
      <defs>
       <path id="m6875d16ab4" d="M 0 0 
L 0 3.5 
" style="stroke: #000000; stroke-width: 0.8"/>
      </defs>
      <g>
       <use xlink:href="#m6875d16ab4" x="39.65" y="188.638125" style="stroke: #000000; stroke-width: 0.8"/>
      </g>
     </g>
     <g id="text_1">
      <!-- 00:00:00 -->
      <g transform="translate(17.19375 203.236563) scale(0.1 -0.1)">
       <defs>
        <path id="DejaVuSans-30" d="M 2034 4250 
Q 1547 4250 1301 3770 
Q 1056 3291 1056 2328 
Q 1056 1369 1301 889 
Q 1547 409 2034 409 
Q 2525 409 2770 889 
Q 3016 1369 3016 2328 
Q 3016 3291 2770 3770 
Q 2525 4250 2034 4250 
z
M 2034 4750 
Q 2819 4750 3233 4129 
Q 3647 3509 3647 2328 
Q 3647 1150 3233 529 
Q 2819 -91 2034 -91 
Q 1250 -91 836 529 
Q 422 1150 422 2328 
Q 422 3509 836 4129 
Q 1250 4750 2034 4750 
z
" transform="scale(0.015625)"/>
        <path id="DejaVuSans-3a" d="M 750 794 
L 1409 794 
L 1409 0 
L 750 0 
L 750 794 
z
M 750 3309 
L 1409 3309 
L 1409 2516 
L 750 2516 
L 750 3309 
z
" transform="scale(0.015625)"/>
       </defs>
       <use xlink:href="#DejaVuSans-30"/>
       <use xlink:href="#DejaVuSans-30" x="63.623047"/>
       <use xlink:href="#DejaVuSans-3a" x="127.246094"/>
       <use xlink:href="#DejaVuSans-30" x="160.9375"/>
       <use xlink:href="#DejaVuSans-30" x="224.560547"/>
       <use xlink:href="#DejaVuSans-3a" x="288.183594"/>
       <use xlink:href="#DejaVuSans-30" x="321.875"/>
       <use xlink:href="#DejaVuSans-30" x="385.498047"/>
      </g>
     </g>
    </g>
    <g id="xtick_2">
     <g id="line2d_2">
      <g>
       <use xlink:href="#m6875d16ab4" x="146.614856" y="188.638125" style="stroke: #000000; stroke-width: 0.8"/>
      </g>
     </g>
     <g id="text_2">
      <!-- 00:00:50 -->
      <g transform="translate(124.158606 203.236563) scale(0.1 -0.1)">
       <defs>
        <path id="DejaVuSans-35" d="M 691 4666 
L 3169 4666 
L 3169 4134 
L 1269 4134 
L 1269 2991 
Q 1406 3038 1543 3061 
Q 1681 3084 1819 3084 
Q 2600 3084 3056 2656 
Q 3513 2228 3513 1497 
Q 3513 744 3044 326 
Q 2575 -91 1722 -91 
Q 1428 -91 1123 -41 
Q 819 9 494 109 
L 494 744 
Q 775 591 1075 516 
Q 1375 441 1709 441 
Q 2250 441 2565 725 
Q 2881 1009 2881 1497 
Q 2881 1984 2565 2268 
Q 2250 2553 1709 2553 
Q 1456 2553 1204 2497 
Q 953 2441 691 2322 
L 691 4666 
z
" transform="scale(0.015625)"/>
       </defs>
       <use xlink:href="#DejaVuSans-30"/>
       <use xlink:href="#DejaVuSans-30" x="63.623047"/>
       <use xlink:href="#DejaVuSans-3a" x="127.246094"/>
       <use xlink:href="#DejaVuSans-30" x="160.9375"/>
       <use xlink:href="#DejaVuSans-30" x="224.560547"/>
       <use xlink:href="#DejaVuSans-3a" x="288.183594"/>
       <use xlink:href="#DejaVuSans-35" x="321.875"/>
       <use xlink:href="#DejaVuSans-30" x="385.498047"/>
      </g>
     </g>
    </g>
    <g id="xtick_3">
     <g id="line2d_3">
      <g>
       <use xlink:href="#m6875d16ab4" x="253.579712" y="188.638125" style="stroke: #000000; stroke-width: 0.8"/>
      </g>
     </g>
     <g id="text_3">
      <!-- 00:01:40 -->
      <g transform="translate(231.123462 203.236563) scale(0.1 -0.1)">
       <defs>
        <path id="DejaVuSans-31" d="M 794 531 
L 1825 531 
L 1825 4091 
L 703 3866 
L 703 4441 
L 1819 4666 
L 2450 4666 
L 2450 531 
L 3481 531 
L 3481 0 
L 794 0 
L 794 531 
z
" transform="scale(0.015625)"/>
        <path id="DejaVuSans-34" d="M 2419 4116 
L 825 1625 
L 2419 1625 
L 2419 4116 
z
M 2253 4666 
L 3047 4666 
L 3047 1625 
L 3713 1625 
L 3713 1100 
L 3047 1100 
L 3047 0 
L 2419 0 
L 2419 1100 
L 313 1100 
L 313 1709 
L 2253 4666 
z
" transform="scale(0.015625)"/>
       </defs>
       <use xlink:href="#DejaVuSans-30"/>
       <use xlink:href="#DejaVuSans-30" x="63.623047"/>
       <use xlink:href="#DejaVuSans-3a" x="127.246094"/>
       <use xlink:href="#DejaVuSans-30" x="160.9375"/>
       <use xlink:href="#DejaVuSans-31" x="224.560547"/>
       <use xlink:href="#DejaVuSans-3a" x="288.183594"/>
       <use xlink:href="#DejaVuSans-34" x="321.875"/>
       <use xlink:href="#DejaVuSans-30" x="385.498047"/>
      </g>
     </g>
    </g>
    <g id="xtick_4">
     <g id="line2d_4">
      <g>
       <use xlink:href="#m6875d16ab4" x="360.544569" y="188.638125" style="stroke: #000000; stroke-width: 0.8"/>
      </g>
     </g>
     <g id="text_4">
      <!-- 00:02:30 -->
      <g transform="translate(338.088319 203.236563) scale(0.1 -0.1)">
       <defs>
        <path id="DejaVuSans-32" d="M 1228 531 
L 3431 531 
L 3431 0 
L 469 0 
L 469 531 
Q 828 903 1448 1529 
Q 2069 2156 2228 2338 
Q 2531 2678 2651 2914 
Q 2772 3150 2772 3378 
Q 2772 3750 2511 3984 
Q 2250 4219 1831 4219 
Q 1534 4219 1204 4116 
Q 875 4013 500 3803 
L 500 4441 
Q 881 4594 1212 4672 
Q 1544 4750 1819 4750 
Q 2544 4750 2975 4387 
Q 3406 4025 3406 3419 
Q 3406 3131 3298 2873 
Q 3191 2616 2906 2266 
Q 2828 2175 2409 1742 
Q 1991 1309 1228 531 
z
" transform="scale(0.015625)"/>
        <path id="DejaVuSans-33" d="M 2597 2516 
Q 3050 2419 3304 2112 
Q 3559 1806 3559 1356 
Q 3559 666 3084 287 
Q 2609 -91 1734 -91 
Q 1441 -91 1130 -33 
Q 819 25 488 141 
L 488 750 
Q 750 597 1062 519 
Q 1375 441 1716 441 
Q 2309 441 2620 675 
Q 2931 909 2931 1356 
Q 2931 1769 2642 2001 
Q 2353 2234 1838 2234 
L 1294 2234 
L 1294 2753 
L 1863 2753 
Q 2328 2753 2575 2939 
Q 2822 3125 2822 3475 
Q 2822 3834 2567 4026 
Q 2313 4219 1838 4219 
Q 1578 4219 1281 4162 
Q 984 4106 628 3988 
L 628 4550 
Q 988 4650 1302 4700 
Q 1616 4750 1894 4750 
Q 2613 4750 3031 4423 
Q 3450 4097 3450 3541 
Q 3450 3153 3228 2886 
Q 3006 2619 2597 2516 
z
" transform="scale(0.015625)"/>
       </defs>
       <use xlink:href="#DejaVuSans-30"/>
       <use xlink:href="#DejaVuSans-30" x="63.623047"/>
       <use xlink:href="#DejaVuSans-3a" x="127.246094"/>
       <use xlink:href="#DejaVuSans-30" x="160.9375"/>
       <use xlink:href="#DejaVuSans-32" x="224.560547"/>
       <use xlink:href="#DejaVuSans-3a" x="288.183594"/>
       <use xlink:href="#DejaVuSans-33" x="321.875"/>
       <use xlink:href="#DejaVuSans-30" x="385.498047"/>
      </g>
     </g>
    </g>
    <g id="xtick_5">
     <g id="line2d_5">
      <g>
       <use xlink:href="#m6875d16ab4" x="467.509425" y="188.638125" style="stroke: #000000; stroke-width: 0.8"/>
      </g>
     </g>
     <g id="text_5">
      <!-- 00:03:20 -->
      <g transform="translate(445.053175 203.236563) scale(0.1 -0.1)">
       <use xlink:href="#DejaVuSans-30"/>
       <use xlink:href="#DejaVuSans-30" x="63.623047"/>
       <use xlink:href="#DejaVuSans-3a" x="127.246094"/>
       <use xlink:href="#DejaVuSans-30" x="160.9375"/>
       <use xlink:href="#DejaVuSans-33" x="224.560547"/>
       <use xlink:href="#DejaVuSans-3a" x="288.183594"/>
       <use xlink:href="#DejaVuSans-32" x="321.875"/>
       <use xlink:href="#DejaVuSans-30" x="385.498047"/>
      </g>
     </g>
    </g>
    <g id="xtick_6">
     <g id="line2d_6">
      <g>
       <use xlink:href="#m6875d16ab4" x="574.474281" y="188.638125" style="stroke: #000000; stroke-width: 0.8"/>
      </g>
     </g>
     <g id="text_6">
      <!-- 00:04:10 -->
      <g transform="translate(552.018031 203.236563) scale(0.1 -0.1)">
       <use xlink:href="#DejaVuSans-30"/>
       <use xlink:href="#DejaVuSans-30" x="63.623047"/>
       <use xlink:href="#DejaVuSans-3a" x="127.246094"/>
       <use xlink:href="#DejaVuSans-30" x="160.9375"/>
       <use xlink:href="#DejaVuSans-34" x="224.560547"/>
       <use xlink:href="#DejaVuSans-3a" x="288.183594"/>
       <use xlink:href="#DejaVuSans-31" x="321.875"/>
       <use xlink:href="#DejaVuSans-30" x="385.498047"/>
      </g>
     </g>
    </g>
    <g id="xtick_7">
     <g id="line2d_7">
      <g>
       <use xlink:href="#m6875d16ab4" x="681.439137" y="188.638125" style="stroke: #000000; stroke-width: 0.8"/>
      </g>
     </g>
     <g id="text_7">
      <!-- 00:05:00 -->
      <g transform="translate(658.982887 203.236563) scale(0.1 -0.1)">
       <use xlink:href="#DejaVuSans-30"/>
       <use xlink:href="#DejaVuSans-30" x="63.623047"/>
       <use xlink:href="#DejaVuSans-3a" x="127.246094"/>
       <use xlink:href="#DejaVuSans-30" x="160.9375"/>
       <use xlink:href="#DejaVuSans-35" x="224.560547"/>
       <use xlink:href="#DejaVuSans-3a" x="288.183594"/>
       <use xlink:href="#DejaVuSans-30" x="321.875"/>
       <use xlink:href="#DejaVuSans-30" x="385.498047"/>
      </g>
     </g>
    </g>
    <g id="text_8">
     <!-- Time -->
     <g transform="translate(362.216406 216.914688) scale(0.1 -0.1)">
      <defs>
       <path id="DejaVuSans-54" d="M -19 4666 
L 3928 4666 
L 3928 4134 
L 2272 4134 
L 2272 0 
L 1638 0 
L 1638 4134 
L -19 4134 
L -19 4666 
z
" transform="scale(0.015625)"/>
       <path id="DejaVuSans-69" d="M 603 3500 
L 1178 3500 
L 1178 0 
L 603 0 
L 603 3500 
z
M 603 4863 
L 1178 4863 
L 1178 4134 
L 603 4134 
L 603 4863 
z
" transform="scale(0.015625)"/>
       <path id="DejaVuSans-6d" d="M 3328 2828 
Q 3544 3216 3844 3400 
Q 4144 3584 4550 3584 
Q 5097 3584 5394 3201 
Q 5691 2819 5691 2113 
L 5691 0 
L 5113 0 
L 5113 2094 
Q 5113 2597 4934 2840 
Q 4756 3084 4391 3084 
Q 3944 3084 3684 2787 
Q 3425 2491 3425 1978 
L 3425 0 
L 2847 0 
L 2847 2094 
Q 2847 2600 2669 2842 
Q 2491 3084 2119 3084 
Q 1678 3084 1418 2786 
Q 1159 2488 1159 1978 
L 1159 0 
L 581 0 
L 581 3500 
L 1159 3500 
L 1159 2956 
Q 1356 3278 1631 3431 
Q 1906 3584 2284 3584 
Q 2666 3584 2933 3390 
Q 3200 3197 3328 2828 
z
" transform="scale(0.015625)"/>
       <path id="DejaVuSans-65" d="M 3597 1894 
L 3597 1613 
L 953 1613 
Q 991 1019 1311 708 
Q 1631 397 2203 397 
Q 2534 397 2845 478 
Q 3156 559 3463 722 
L 3463 178 
Q 3153 47 2828 -22 
Q 2503 -91 2169 -91 
Q 1331 -91 842 396 
Q 353 884 353 1716 
Q 353 2575 817 3079 
Q 1281 3584 2069 3584 
Q 2775 3584 3186 3129 
Q 3597 2675 3597 1894 
z
M 3022 2063 
Q 3016 2534 2758 2815 
Q 2500 3097 2075 3097 
Q 1594 3097 1305 2825 
Q 1016 2553 972 2059 
L 3022 2063 
z
" transform="scale(0.015625)"/>
      </defs>
      <use xlink:href="#DejaVuSans-54"/>
      <use xlink:href="#DejaVuSans-69" x="57.958984"/>
      <use xlink:href="#DejaVuSans-6d" x="85.742188"/>
      <use xlink:href="#DejaVuSans-65" x="183.154297"/>
     </g>
    </g>
   </g>
   <g id="matplotlib.axis_2">
    <g id="ytick_1">
     <g id="line2d_8">
      <defs>
       <path id="m6bbd7e0cdb" d="M 0 0 
L -3.5 0 
" style="stroke: #000000; stroke-width: 0.8"/>
      </defs>
      <g>
       <use xlink:href="#m6bbd7e0cdb" x="39.65" y="181.107977" style="stroke: #000000; stroke-width: 0.8"/>
      </g>
     </g>
     <g id="text_9">
      <!-- 0 -->
      <g transform="translate(26.2875 184.907196) scale(0.1 -0.1)">
       <use xlink:href="#DejaVuSans-30"/>
      </g>
     </g>
    </g>
    <g id="ytick_2">
     <g id="line2d_9">
      <g>
       <use xlink:href="#m6bbd7e0cdb" x="39.65" y="151.256052" style="stroke: #000000; stroke-width: 0.8"/>
      </g>
     </g>
     <g id="text_10">
      <!-- 1000 -->
      <g transform="translate(7.2 155.055271) scale(0.1 -0.1)">
       <use xlink:href="#DejaVuSans-31"/>
       <use xlink:href="#DejaVuSans-30" x="63.623047"/>
       <use xlink:href="#DejaVuSans-30" x="127.246094"/>
       <use xlink:href="#DejaVuSans-30" x="190.869141"/>
      </g>
     </g>
    </g>
    <g id="ytick_3">
     <g id="line2d_10">
      <g>
       <use xlink:href="#m6bbd7e0cdb" x="39.65" y="121.404127" style="stroke: #000000; stroke-width: 0.8"/>
      </g>
     </g>
     <g id="text_11">
      <!-- 2000 -->
      <g transform="translate(7.2 125.203346) scale(0.1 -0.1)">
       <use xlink:href="#DejaVuSans-32"/>
       <use xlink:href="#DejaVuSans-30" x="63.623047"/>
       <use xlink:href="#DejaVuSans-30" x="127.246094"/>
       <use xlink:href="#DejaVuSans-30" x="190.869141"/>
      </g>
     </g>
    </g>
    <g id="ytick_4">
     <g id="line2d_11">
      <g>
       <use xlink:href="#m6bbd7e0cdb" x="39.65" y="91.552202" style="stroke: #000000; stroke-width: 0.8"/>
      </g>
     </g>
     <g id="text_12">
      <!-- 3000 -->
      <g transform="translate(7.2 95.351421) scale(0.1 -0.1)">
       <use xlink:href="#DejaVuSans-33"/>
       <use xlink:href="#DejaVuSans-30" x="63.623047"/>
       <use xlink:href="#DejaVuSans-30" x="127.246094"/>
       <use xlink:href="#DejaVuSans-30" x="190.869141"/>
      </g>
     </g>
    </g>
    <g id="ytick_5">
     <g id="line2d_12">
      <g>
       <use xlink:href="#m6bbd7e0cdb" x="39.65" y="61.700277" style="stroke: #000000; stroke-width: 0.8"/>
      </g>
     </g>
     <g id="text_13">
      <!-- 4000 -->
      <g transform="translate(7.2 65.499496) scale(0.1 -0.1)">
       <use xlink:href="#DejaVuSans-34"/>
       <use xlink:href="#DejaVuSans-30" x="63.623047"/>
       <use xlink:href="#DejaVuSans-30" x="127.246094"/>
       <use xlink:href="#DejaVuSans-30" x="190.869141"/>
      </g>
     </g>
    </g>
    <g id="ytick_6">
     <g id="line2d_13">
      <g>
       <use xlink:href="#m6bbd7e0cdb" x="39.65" y="31.848352" style="stroke: #000000; stroke-width: 0.8"/>
      </g>
     </g>
     <g id="text_14">
      <!-- 5000 -->
      <g transform="translate(7.2 35.647571) scale(0.1 -0.1)">
       <use xlink:href="#DejaVuSans-35"/>
       <use xlink:href="#DejaVuSans-30" x="63.623047"/>
       <use xlink:href="#DejaVuSans-30" x="127.246094"/>
       <use xlink:href="#DejaVuSans-30" x="190.869141"/>
      </g>
     </g>
    </g>
   </g>
   <g id="line2d_14">
    <path d="M 39.65 181.018421 
L 54.62508 180.719902 
L 65.321565 180.481087 
L 69.60016 180.391531 
L 88.853834 180.212419 
L 103.828914 180.122863 
L 131.639776 179.436269 
L 138.057668 179.316861 
L 142.336262 179.167602 
L 144.475559 179.227306 
L 146.614856 179.13775 
L 155.172045 179.197454 
L 159.450639 179.13775 
L 163.729233 179.197454 
L 180.84361 178.092933 
L 182.982907 178.033229 
L 185.122204 177.764561 
L 187.261502 177.734709 
L 189.400799 177.525746 
L 193.679393 177.257079 
L 195.81869 177.645154 
L 197.957987 177.227227 
L 200.097284 177.376486 
L 202.236581 176.839152 
L 204.375879 177.346634 
L 206.515176 176.600336 
L 208.654473 177.555598 
L 210.79377 175.615223 
L 212.933067 174.152478 
L 215.072364 176.212261 
L 217.211661 176.361521 
L 227.908147 176.331669 
L 230.047444 176.182409 
L 238.604633 175.048036 
L 240.74393 174.868925 
L 242.883227 174.450998 
L 247.161821 174.003219 
L 251.440415 173.436032 
L 257.858307 172.63003 
L 259.997604 172.63003 
L 262.136901 171.734472 
L 264.276198 171.794176 
L 266.415495 171.555361 
L 268.554792 171.107582 
L 270.694089 171.465805 
L 272.833387 172.092696 
L 274.972684 171.167286 
L 277.111981 171.167286 
L 279.251278 172.062844 
L 281.390575 171.286694 
L 283.529872 170.988174 
L 285.669169 172.062844 
L 287.808466 170.958322 
L 292.087061 171.764324 
L 294.226358 172.719586 
L 296.365655 171.824028 
L 298.504952 172.152399 
L 300.644249 171.644917 
L 302.783546 171.913584 
L 304.922843 172.600178 
L 307.062141 172.092696 
L 309.201438 172.271807 
L 311.340735 171.615065 
L 313.480032 173.734551 
L 313.480032 173.734551 
" clip-path="url(#p96efbe268a)" style="fill: none; stroke: #1f77b4; stroke-width: 1.5; stroke-linecap: square"/>
   </g>
   <g id="line2d_15">
    <path d="M 39.65 181.048273 
L 52.485783 180.779606 
L 67.460863 180.481087 
L 80.296645 180.182567 
L 88.853834 180.212419 
L 103.828914 180.152715 
L 131.639776 179.436269 
L 135.918371 179.346713 
L 153.032748 179.13775 
L 155.172045 179.197454 
L 159.450639 179.167602 
L 163.729233 179.167602 
L 170.147125 178.809379 
L 180.84361 178.152636 
L 185.122204 177.824265 
L 189.400799 177.555598 
L 197.957987 177.048115 
L 200.097284 176.8093 
L 202.236581 176.749596 
L 206.515176 176.451077 
L 208.654473 176.331669 
L 210.79377 176.421225 
L 215.072364 176.301817 
L 221.490256 176.391373 
L 223.629553 176.331669 
L 227.908147 176.361521 
L 230.047444 176.242113 
L 251.440415 173.55544 
L 253.579712 173.167365 
L 257.858307 172.77929 
L 259.997604 172.271807 
L 262.136901 172.182251 
L 266.415495 171.555361 
L 268.554792 171.256842 
L 270.694089 171.137434 
L 272.833387 170.779211 
L 277.111981 170.928471 
L 281.390575 170.838915 
L 287.808466 170.928471 
L 294.226358 170.659803 
L 296.365655 170.271728 
L 298.504952 169.734394 
L 304.922843 168.450761 
L 307.062141 167.883574 
L 309.201438 167.555203 
L 311.340735 167.107424 
L 313.480032 166.540238 
L 315.619329 166.211866 
L 317.758626 165.64468 
L 322.03722 164.86853 
L 324.176518 164.271491 
L 328.455112 163.405785 
L 330.594409 163.137118 
L 332.733706 162.480376 
L 334.873003 161.972893 
L 337.0123 161.734078 
L 341.290895 161.853485 
L 343.430192 161.853485 
L 345.569489 161.674374 
L 347.708786 161.853485 
L 349.848083 161.76393 
L 356.265974 161.853485 
L 358.405272 161.495262 
L 362.683866 160.211629 
L 364.823163 159.554887 
L 366.96246 158.748885 
L 369.101757 158.181699 
L 371.241054 157.465252 
L 373.380351 156.898066 
L 375.519649 155.912952 
L 377.658946 155.375618 
L 379.798243 155.196506 
L 381.93754 153.793466 
L 386.216134 152.868056 
L 388.355431 151.85309 
L 390.494728 151.614275 
L 392.634026 150.659013 
L 394.773323 150.061975 
L 396.91262 149.226121 
L 399.051917 148.688786 
L 401.191214 148.360415 
L 403.330511 148.151452 
L 405.469808 148.300711 
L 409.748403 148.300711 
L 411.8877 148.151452 
L 414.026997 148.330563 
L 416.166294 148.211156 
L 418.305591 148.360415 
L 422.584185 147.912636 
L 424.723482 147.076782 
L 426.86278 145.972261 
L 431.141374 144.151294 
L 439.698562 140.21084 
L 441.837859 140.449655 
L 443.977157 137.524166 
L 446.116454 137.703278 
L 448.255751 137.046536 
L 450.395048 135.344976 
L 452.534345 135.225568 
L 454.673642 134.061343 
L 456.812939 135.165864 
L 458.952236 144.86774 
L 461.091534 134.927049 
L 463.230831 138.270465 
L 465.370128 141.285509 
L 467.509425 131.135855 
L 469.648722 135.852459 
L 471.788019 136.210682 
L 473.927316 133.583712 
L 476.066613 142.419882 
L 478.205911 135.762903 
L 480.345208 134.807641 
L 482.484505 132.658303 
L 484.623802 139.733209 
L 486.763099 127.822291 
L 488.902396 131.822449 
L 493.18099 139.076467 
L 495.320288 125.971471 
L 497.459585 135.464384 
L 499.598882 138.240613 
L 501.738179 148.479823 
L 503.877476 149.255973 
L 506.016773 150.987385 
L 508.15607 168.062686 
L 510.295367 150.479902 
L 512.434665 149.136565 
L 514.573962 153.972577 
L 516.713259 139.106318 
L 518.852556 153.017316 
L 520.991853 180.749754 
L 520.991853 180.749754 
" clip-path="url(#p96efbe268a)" style="fill: none; stroke: #ff7f0e; stroke-width: 1.5; stroke-linecap: square"/>
   </g>
   <g id="line2d_16">
    <path d="M 39.65 181.048273 
L 54.62508 180.719902 
L 69.60016 180.421383 
L 80.296645 180.212419 
L 103.828914 180.152715 
L 110.246805 179.973604 
L 118.803994 179.794492 
L 125.221885 179.585529 
L 133.779073 179.436269 
L 138.057668 179.28701 
L 142.336262 179.197454 
L 146.614856 179.167602 
L 153.032748 179.197454 
L 155.172045 179.13775 
L 159.450639 179.167602 
L 168.007827 178.98849 
L 195.81869 177.107819 
L 200.097284 176.839152 
L 210.79377 176.331669 
L 227.908147 176.361521 
L 230.047444 176.212261 
L 257.858307 172.689734 
L 259.997604 172.331511 
L 262.136901 172.152399 
L 270.694089 170.958322 
L 274.972684 170.868767 
L 277.111981 170.928471 
L 279.251278 170.779211 
L 281.390575 170.898619 
L 283.529872 170.838915 
L 287.808466 170.868767 
L 292.087061 170.838915 
L 294.226358 170.719507 
L 296.365655 170.15232 
L 298.504952 169.704542 
L 300.644249 169.406022 
L 302.783546 168.808984 
L 309.201438 167.495499 
L 313.480032 166.599941 
L 315.619329 166.182014 
L 319.897923 165.137197 
L 322.03722 164.71927 
L 324.176518 164.420751 
L 326.315815 163.79386 
L 328.455112 163.465489 
L 330.594409 162.868451 
L 334.873003 162.092301 
L 337.0123 161.823633 
L 341.290895 161.823633 
L 343.430192 161.644522 
L 345.569489 161.823633 
L 347.708786 161.734078 
L 349.848083 161.823633 
L 351.98738 161.76393 
L 354.126677 161.823633 
L 356.265974 161.76393 
L 358.405272 161.46541 
L 362.683866 160.211629 
L 364.823163 159.435479 
L 373.380351 156.718954 
L 375.519649 156.271175 
L 379.798243 154.599468 
L 381.93754 154.151689 
L 384.076837 153.315835 
L 386.216134 152.748648 
L 388.355431 151.972498 
L 399.051917 148.74849 
L 401.191214 148.151452 
L 405.469808 148.479823 
L 407.609105 148.091748 
L 409.748403 148.241008 
L 411.8877 148.181304 
L 414.026997 148.360415 
L 420.444888 148.211156 
L 422.584185 147.793229 
L 424.723482 146.987227 
L 426.86278 145.912557 
L 431.141374 144.210998 
L 433.280671 142.837809 
L 435.419968 142.479586 
L 437.559265 141.166101 
L 439.698562 140.718322 
L 441.837859 138.837651 
L 443.977157 138.628688 
L 446.116454 137.404759 
L 450.395048 135.40468 
L 456.812939 133.195637 
L 458.952236 131.344818 
L 463.230831 130.240297 
L 465.370128 129.225331 
L 467.509425 129.613406 
L 469.648722 129.583554 
L 471.788019 128.986516 
L 473.927316 129.82237 
L 476.066613 129.105924 
L 478.205911 129.434295 
L 480.345208 129.583554 
L 482.484505 129.523851 
L 484.623802 129.643258 
L 486.763099 128.508885 
L 488.902396 127.673031 
L 491.041693 126.449102 
L 493.18099 124.837098 
L 495.320288 124.389319 
L 497.459585 121.971314 
L 499.598882 121.732498 
L 501.738179 120.329458 
L 503.877476 118.50849 
L 506.016773 118.836861 
L 508.15607 116.687523 
L 510.295367 114.329221 
L 512.434665 115.075519 
L 514.573962 114.538184 
L 516.713259 111.761955 
L 518.852556 110.627582 
L 520.991853 111.075361 
L 523.13115 107.045351 
L 525.270447 110.687286 
L 527.409744 115.40389 
L 529.549042 120.83694 
L 531.688339 111.821659 
L 533.827636 118.598046 
L 535.966933 113.85159 
L 538.10623 114.508332 
L 542.384824 117.762192 
L 544.524121 116.717375 
L 546.663419 120.956348 
L 548.802716 127.792439 
L 550.942013 145.823002 
L 553.08131 159.196664 
L 555.220607 148.74849 
L 557.359904 157.524956 
L 559.499201 120.508569 
L 561.638498 169.644838 
L 563.777796 162.928155 
L 565.917093 126.329695 
L 568.05639 156.838362 
L 570.195687 135.464384 
L 572.334984 137.315203 
L 574.474281 146.808115 
L 576.613578 180.779606 
L 576.613578 180.779606 
" clip-path="url(#p96efbe268a)" style="fill: none; stroke: #2ca02c; stroke-width: 1.5; stroke-linecap: square"/>
   </g>
   <g id="line2d_17">
    <path d="M 39.65 181.078125 
L 54.62508 180.749754 
L 69.60016 180.451235 
L 80.296645 180.212419 
L 86.714537 180.212419 
L 103.828914 180.152715 
L 133.779073 179.406417 
L 138.057668 179.316861 
L 146.614856 179.13775 
L 150.89345 179.167602 
L 165.86853 179.107898 
L 168.007827 179.048194 
L 174.425719 178.570563 
L 178.704313 178.301896 
L 197.957987 177.048115 
L 204.375879 176.630188 
L 208.654473 176.361521 
L 215.072364 176.361521 
L 230.047444 176.331669 
L 236.465335 175.495815 
L 240.74393 174.95848 
L 245.022524 174.391294 
L 247.161821 174.18233 
L 251.440415 173.55544 
L 253.579712 173.376328 
L 257.858307 172.719586 
L 259.997604 172.540474 
L 264.276198 171.913584 
L 266.415495 171.704621 
L 268.554792 171.316546 
L 272.833387 170.898619 
L 274.972684 170.928471 
L 277.111981 170.809063 
L 279.251278 170.988174 
L 281.390575 170.719507 
L 283.529872 170.898619 
L 287.808466 170.898619 
L 289.947764 170.928471 
L 294.226358 170.809063 
L 296.365655 170.480692 
L 298.504952 169.823949 
L 304.922843 168.450761 
L 307.062141 168.241797 
L 309.201438 167.585055 
L 315.619329 166.42083 
L 317.758626 165.764087 
L 319.897923 165.435716 
L 322.03722 164.958086 
L 324.176518 164.331195 
L 326.315815 164.122232 
L 328.455112 163.405785 
L 330.594409 163.16697 
L 332.733706 162.778895 
L 334.873003 162.152005 
L 337.0123 161.734078 
L 339.151597 161.853485 
L 341.290895 161.644522 
L 343.430192 161.823633 
L 345.569489 161.883337 
L 347.708786 161.734078 
L 351.98738 161.883337 
L 354.126677 161.734078 
L 356.265974 161.853485 
L 358.405272 161.61467 
L 360.544569 161.047483 
L 362.683866 160.301185 
L 369.101757 158.390662 
L 371.241054 157.674216 
L 373.380351 157.107029 
L 375.519649 156.211471 
L 381.93754 154.3308 
L 386.216134 152.92776 
L 388.355431 152.330721 
L 390.494728 151.315756 
L 392.634026 151.136644 
L 394.773323 150.211235 
L 399.051917 148.838046 
L 401.191214 148.330563 
L 403.330511 148.241008 
L 405.469808 148.360415 
L 411.8877 148.270859 
L 416.166294 148.270859 
L 418.305591 149.285825 
L 420.444888 148.211156 
L 422.584185 147.97234 
L 424.723482 147.076782 
L 426.86278 146.390188 
L 433.280671 143.4647 
L 435.419968 143.136328 
L 437.559265 140.778026 
L 439.698562 141.106397 
L 441.837859 139.763061 
L 443.977157 138.65854 
L 446.116454 138.50928 
L 448.255751 138.628688 
L 450.395048 139.942172 
L 452.534345 135.643495 
L 454.673642 133.046378 
L 456.812939 136.240534 
L 461.091534 147.882784 
L 463.230831 120.717533 
L 465.370128 144.031886 
L 467.509425 119.314492 
L 469.648722 142.658698 
L 471.788019 120.299606 
L 473.927316 137.285351 
L 476.066613 125.822212 
L 478.205911 134.658382 
L 480.345208 129.04622 
L 482.484505 131.941856 
L 484.623802 127.523772 
L 486.763099 131.37467 
L 488.902396 130.688076 
L 491.041693 129.225331 
L 493.18099 124.329616 
L 495.320288 123.911689 
L 497.459585 127.34466 
L 499.598882 121.971314 
L 501.738179 130.926891 
L 503.877476 113.732182 
L 506.016773 159.704147 
L 508.15607 91.223831 
L 510.295367 145.673742 
L 512.434665 90.59694 
L 514.573962 129.792518 
L 516.713259 95.791175 
L 518.852556 120.926496 
L 520.991853 98.925627 
L 523.13115 108.567799 
L 525.270447 105.672163 
L 527.409744 106.179645 
L 529.549042 103.61238 
L 531.688339 106.030386 
L 533.827636 163.286378 
L 535.966933 164.241639 
L 538.10623 156.151768 
L 540.245527 163.734157 
L 542.384824 170.212024 
L 544.524121 140.330247 
L 546.663419 160.211629 
L 548.802716 163.913268 
L 550.942013 133.404601 
L 553.08131 149.882863 
L 555.220607 157.375697 
L 557.359904 150.270938 
L 559.499201 161.883337 
L 559.499201 161.883337 
" clip-path="url(#p96efbe268a)" style="fill: none; stroke: #d62728; stroke-width: 1.5; stroke-linecap: square"/>
   </g>
   <g id="line2d_18">
    <path d="M 39.65 181.018421 
L 54.62508 180.719902 
L 69.60016 180.391531 
L 88.853834 180.212419 
L 103.828914 180.122863 
L 129.500479 179.495973 
L 138.057668 179.316861 
L 142.336262 179.197454 
L 150.89345 179.167602 
L 165.86853 179.078046 
L 172.286422 178.660119 
L 176.565016 178.3616 
L 178.704313 178.272044 
L 182.982907 177.943673 
L 197.957987 176.928707 
L 200.097284 176.898856 
L 202.236581 176.630188 
L 204.375879 176.600336 
L 206.515176 176.361521 
L 227.908147 176.331669 
L 232.186741 175.913742 
L 255.71901 172.898698 
L 259.997604 172.331511 
L 270.694089 170.928471 
L 272.833387 170.838915 
L 274.972684 170.928471 
L 279.251278 170.779211 
L 281.390575 170.958322 
L 283.529872 170.838915 
L 292.087061 170.868767 
L 294.226358 170.600099 
L 296.365655 170.092617 
L 298.504952 169.704542 
L 300.644249 169.017947 
L 302.783546 168.868688 
L 304.922843 168.391057 
L 307.062141 167.674611 
L 311.340735 167.017868 
L 313.480032 166.42083 
L 315.619329 165.943199 
L 317.758626 165.704384 
L 319.897923 165.077493 
L 332.733706 162.39082 
L 334.873003 161.793781 
L 337.0123 161.913189 
L 339.151597 161.734078 
L 345.569489 161.883337 
L 347.708786 161.674374 
L 349.848083 161.883337 
L 356.265974 161.76393 
L 358.405272 161.226595 
L 360.544569 160.808668 
L 362.683866 160.032518 
L 364.823163 159.077256 
L 366.96246 158.748885 
L 371.241054 157.166733 
L 373.380351 156.65925 
L 375.519649 155.763693 
L 377.658946 155.315914 
L 381.93754 153.823317 
L 384.076837 153.315835 
L 386.216134 152.599389 
L 388.355431 151.703831 
L 390.494728 151.435163 
L 392.634026 150.390346 
L 394.773323 149.912715 
L 396.91262 149.315677 
L 399.051917 148.390267 
L 401.191214 148.330563 
L 403.330511 148.032044 
L 405.469808 148.390267 
L 407.609105 148.599231 
L 409.748403 147.882784 
L 411.8877 148.300711 
L 414.026997 148.360415 
L 416.166294 148.1216 
L 418.305591 148.330563 
L 420.444888 148.420119 
L 424.723482 146.778263 
L 426.86278 145.554334 
L 429.002077 144.987148 
L 431.141374 143.972182 
L 433.280671 142.569142 
L 435.419968 142.031807 
L 437.559265 140.748174 
L 439.698562 140.389951 
L 441.837859 139.016763 
L 443.977157 142.837809 
L 446.116454 136.897276 
L 448.255751 139.43469 
L 450.395048 134.449418 
L 452.534345 138.389872 
L 454.673642 132.867266 
L 456.812939 147.017079 
L 458.952236 124.986358 
L 461.091534 156.778658 
L 463.230831 118.359231 
L 465.370128 148.330563 
L 467.509425 115.344186 
L 469.648722 150.509754 
L 471.788019 113.762034 
L 473.927316 146.211077 
L 476.066613 114.657592 
L 478.205911 145.196111 
L 480.345208 122.419092 
L 482.484505 140.539211 
L 484.623802 118.120415 
L 486.763099 139.43469 
L 488.902396 116.627819 
L 491.041693 136.449497 
L 493.18099 117.73234 
L 495.320288 127.135697 
L 497.459585 121.76235 
L 499.598882 124.508727 
L 501.738179 115.433742 
L 503.877476 118.180119 
L 506.016773 120.269754 
L 508.15607 116.359152 
L 510.295367 117.374117 
L 512.434665 116.03078 
L 514.573962 109.851432 
L 516.713259 112.358994 
L 518.852556 119.941383 
L 520.991853 98.567404 
L 523.13115 115.463594 
L 525.270447 98.089774 
L 527.409744 106.209497 
L 529.549042 103.045193 
L 531.688339 141.733288 
L 533.827636 173.286773 
L 535.966933 159.644443 
L 538.10623 161.495262 
L 540.245527 165.256605 
L 542.384824 146.987227 
L 544.524121 149.435085 
L 546.663419 161.972893 
L 548.802716 147.464857 
L 550.942013 168.540317 
L 553.08131 130.867187 
L 555.220607 156.390583 
L 557.359904 148.688786 
L 559.499201 163.734157 
L 561.638498 166.002903 
L 561.638498 166.002903 
" clip-path="url(#p96efbe268a)" style="fill: none; stroke: #9467bd; stroke-width: 1.5; stroke-linecap: square"/>
   </g>
   <g id="line2d_19">
    <path d="M 39.65 181.048273 
L 52.485783 180.779606 
L 65.321565 180.510938 
L 93.132428 180.212419 
L 103.828914 180.152715 
L 133.779073 179.406417 
L 157.311342 179.167602 
L 165.86853 179.167602 
L 170.147125 178.839231 
L 180.84361 178.152636 
L 185.122204 177.854117 
L 193.679393 177.316782 
L 197.957987 177.018263 
L 202.236581 176.779448 
L 206.515176 176.451077 
L 208.654473 176.331669 
L 210.79377 176.391373 
L 215.072364 176.361521 
L 221.490256 176.391373 
L 225.76885 176.331669 
L 227.908147 176.421225 
L 230.047444 176.271965 
L 234.326038 175.73463 
L 238.604633 175.167444 
L 262.136901 172.212103 
L 264.276198 171.824028 
L 266.415495 171.644917 
L 270.694089 171.047878 
L 274.972684 170.838915 
L 281.390575 170.868767 
L 283.529872 170.838915 
L 285.669169 170.928471 
L 287.808466 170.838915 
L 289.947764 170.988174 
L 292.087061 170.749359 
L 294.226358 170.749359 
L 296.365655 170.212024 
L 298.504952 169.913505 
L 300.644249 169.346318 
L 302.783546 169.017947 
L 304.922843 168.570168 
L 307.062141 167.82387 
L 309.201438 167.704463 
L 311.340735 166.988016 
L 315.619329 166.27157 
L 317.758626 165.734236 
L 319.897923 165.405864 
L 322.03722 164.808826 
L 332.733706 162.599783 
L 334.873003 161.972893 
L 337.0123 162.002745 
L 339.151597 161.704226 
L 341.290895 161.823633 
L 343.430192 161.76393 
L 347.708786 161.823633 
L 349.848083 161.76393 
L 351.98738 161.883337 
L 354.126677 161.704226 
L 356.265974 161.76393 
L 358.405272 161.61467 
L 360.544569 160.957928 
L 362.683866 160.420593 
L 364.823163 159.465331 
L 366.96246 158.838441 
L 369.101757 158.330958 
L 373.380351 156.778658 
L 375.519649 156.241323 
L 377.658946 155.465173 
L 379.798243 154.897987 
L 381.93754 154.091985 
L 384.076837 153.644206 
L 386.216134 152.897908 
L 388.355431 151.942646 
L 390.494728 151.494867 
L 394.773323 150.032123 
L 396.91262 149.6739 
L 399.051917 148.688786 
L 401.191214 148.330563 
L 403.330511 148.211156 
L 405.469808 148.300711 
L 407.609105 148.151452 
L 409.748403 148.360415 
L 414.026997 148.091748 
L 416.166294 148.420119 
L 418.305591 148.151452 
L 420.444888 148.509675 
L 422.584185 147.912636 
L 426.86278 146.240929 
L 429.002077 145.076703 
L 431.141374 144.24085 
L 433.280671 143.554255 
L 437.559265 141.195953 
L 439.698562 140.330247 
L 441.837859 139.613801 
L 446.116454 137.88239 
L 448.255751 137.165943 
L 450.395048 135.165864 
L 452.534345 134.807641 
L 454.673642 133.971787 
L 458.952236 131.852301 
L 461.091534 131.165706 
L 463.230831 130.031333 
L 465.370128 129.344739 
L 467.509425 129.553702 
L 469.648722 129.314887 
L 471.788019 129.344739 
L 473.927316 129.941778 
L 476.066613 129.165627 
L 478.205911 129.553702 
L 484.623802 129.344739 
L 486.763099 128.867108 
L 488.902396 128.001402 
L 493.18099 125.135618 
L 497.459585 123.016131 
L 499.598882 121.165312 
L 501.738179 120.747385 
L 503.877476 118.777158 
L 506.016773 117.941304 
L 510.295367 115.105371 
L 512.434665 114.47848 
L 514.573962 112.597809 
L 516.713259 111.105213 
L 518.852556 110.478322 
L 520.991853 109.105134 
L 523.13115 107.522982 
L 527.409744 105.284087 
L 529.549042 104.716901 
L 531.688339 104.269122 
L 533.827636 104.537789 
L 535.966933 104.269122 
L 538.10623 104.23927 
L 540.245527 104.060159 
L 542.384824 104.657197 
L 544.524121 103.970603 
L 546.663419 104.687049 
L 550.942013 103.851195 
L 553.08131 102.06008 
L 555.220607 101.104818 
L 557.359904 98.985331 
L 559.499201 97.224068 
L 561.638498 95.940435 
L 563.777796 93.910504 
L 570.195687 89.701383 
L 576.613578 84.596703 
L 578.752875 82.387661 
L 580.892173 81.13388 
L 583.03147 80.118915 
L 585.170767 77.730761 
L 587.310064 77.193426 
L 589.449361 74.954532 
L 591.588658 74.327641 
L 593.727955 76.596388 
L 595.867252 72.506674 
L 598.00655 71.790228 
L 600.145847 72.59623 
L 602.285144 72.267858 
L 604.424441 71.730524 
L 606.563738 72.178303 
L 608.703035 71.969339 
L 610.842332 72.44697 
L 612.981629 71.700672 
L 617.260224 70.476743 
L 619.399521 67.431847 
L 621.538818 64.715321 
L 623.678115 63.491393 
L 625.817412 61.998796 
L 627.956709 59.043456 
L 630.096006 59.222567 
L 632.235304 55.07315 
L 634.374601 53.550702 
L 636.513898 50.834176 
L 638.653195 52.505884 
L 640.792492 46.893722 
L 642.931789 55.520929 
L 645.071086 47.968392 
L 647.210383 83.999665 
L 649.349681 32.952873 
L 651.488978 41.729339 
L 653.628275 31.370721 
L 655.767572 38.206812 
L 657.906869 29.878125 
L 660.046166 30.952794 
L 662.185463 30.385608 
L 664.32476 49.729655 
L 666.464058 45.013051 
L 668.603355 124.150504 
L 670.742652 142.927365 
L 672.881949 155.077098 
L 675.021246 132.180672 
L 677.160543 126.031175 
L 679.29984 146.957375 
L 681.439137 112.866476 
L 683.578435 138.270465 
L 685.717732 124.299764 
L 687.857029 150.061975 
L 689.996326 120.657829 
L 692.135623 137.345055 
L 694.27492 127.404364 
L 696.414217 162.271412 
L 698.553514 168.808984 
L 700.692812 172.958401 
L 702.832109 174.659961 
L 704.971406 165.047641 
L 707.110703 158.151847 
L 709.25 173.346476 
L 709.25 173.346476 
" clip-path="url(#p96efbe268a)" style="fill: none; stroke: #8c564b; stroke-width: 1.5; stroke-linecap: square"/>
   </g>
   <g id="patch_3">
    <path d="M 39.65 188.638125 
L 39.65 22.318125 
" style="fill: none; stroke: #000000; stroke-width: 0.8; stroke-linejoin: miter; stroke-linecap: square"/>
   </g>
   <g id="patch_4">
    <path d="M 709.25 188.638125 
L 709.25 22.318125 
" style="fill: none; stroke: #000000; stroke-width: 0.8; stroke-linejoin: miter; stroke-linecap: square"/>
   </g>
   <g id="patch_5">
    <path d="M 39.65 188.638125 
L 709.25 188.638125 
" style="fill: none; stroke: #000000; stroke-width: 0.8; stroke-linejoin: miter; stroke-linecap: square"/>
   </g>
   <g id="patch_6">
    <path d="M 39.65 22.318125 
L 709.25 22.318125 
" style="fill: none; stroke: #000000; stroke-width: 0.8; stroke-linejoin: miter; stroke-linecap: square"/>
   </g>
   <g id="text_15">
    <!-- Requests per second -->
    <g transform="translate(311.771563 16.318125) scale(0.12 -0.12)">
     <defs>
      <path id="DejaVuSans-52" d="M 2841 2188 
Q 3044 2119 3236 1894 
Q 3428 1669 3622 1275 
L 4263 0 
L 3584 0 
L 2988 1197 
Q 2756 1666 2539 1819 
Q 2322 1972 1947 1972 
L 1259 1972 
L 1259 0 
L 628 0 
L 628 4666 
L 2053 4666 
Q 2853 4666 3247 4331 
Q 3641 3997 3641 3322 
Q 3641 2881 3436 2590 
Q 3231 2300 2841 2188 
z
M 1259 4147 
L 1259 2491 
L 2053 2491 
Q 2509 2491 2742 2702 
Q 2975 2913 2975 3322 
Q 2975 3731 2742 3939 
Q 2509 4147 2053 4147 
L 1259 4147 
z
" transform="scale(0.015625)"/>
      <path id="DejaVuSans-71" d="M 947 1747 
Q 947 1113 1208 752 
Q 1469 391 1925 391 
Q 2381 391 2643 752 
Q 2906 1113 2906 1747 
Q 2906 2381 2643 2742 
Q 2381 3103 1925 3103 
Q 1469 3103 1208 2742 
Q 947 2381 947 1747 
z
M 2906 525 
Q 2725 213 2448 61 
Q 2172 -91 1784 -91 
Q 1150 -91 751 415 
Q 353 922 353 1747 
Q 353 2572 751 3078 
Q 1150 3584 1784 3584 
Q 2172 3584 2448 3432 
Q 2725 3281 2906 2969 
L 2906 3500 
L 3481 3500 
L 3481 -1331 
L 2906 -1331 
L 2906 525 
z
" transform="scale(0.015625)"/>
      <path id="DejaVuSans-75" d="M 544 1381 
L 544 3500 
L 1119 3500 
L 1119 1403 
Q 1119 906 1312 657 
Q 1506 409 1894 409 
Q 2359 409 2629 706 
Q 2900 1003 2900 1516 
L 2900 3500 
L 3475 3500 
L 3475 0 
L 2900 0 
L 2900 538 
Q 2691 219 2414 64 
Q 2138 -91 1772 -91 
Q 1169 -91 856 284 
Q 544 659 544 1381 
z
M 1991 3584 
L 1991 3584 
z
" transform="scale(0.015625)"/>
      <path id="DejaVuSans-73" d="M 2834 3397 
L 2834 2853 
Q 2591 2978 2328 3040 
Q 2066 3103 1784 3103 
Q 1356 3103 1142 2972 
Q 928 2841 928 2578 
Q 928 2378 1081 2264 
Q 1234 2150 1697 2047 
L 1894 2003 
Q 2506 1872 2764 1633 
Q 3022 1394 3022 966 
Q 3022 478 2636 193 
Q 2250 -91 1575 -91 
Q 1294 -91 989 -36 
Q 684 19 347 128 
L 347 722 
Q 666 556 975 473 
Q 1284 391 1588 391 
Q 1994 391 2212 530 
Q 2431 669 2431 922 
Q 2431 1156 2273 1281 
Q 2116 1406 1581 1522 
L 1381 1569 
Q 847 1681 609 1914 
Q 372 2147 372 2553 
Q 372 3047 722 3315 
Q 1072 3584 1716 3584 
Q 2034 3584 2315 3537 
Q 2597 3491 2834 3397 
z
" transform="scale(0.015625)"/>
      <path id="DejaVuSans-74" d="M 1172 4494 
L 1172 3500 
L 2356 3500 
L 2356 3053 
L 1172 3053 
L 1172 1153 
Q 1172 725 1289 603 
Q 1406 481 1766 481 
L 2356 481 
L 2356 0 
L 1766 0 
Q 1100 0 847 248 
Q 594 497 594 1153 
L 594 3053 
L 172 3053 
L 172 3500 
L 594 3500 
L 594 4494 
L 1172 4494 
z
" transform="scale(0.015625)"/>
      <path id="DejaVuSans-20" transform="scale(0.015625)"/>
      <path id="DejaVuSans-70" d="M 1159 525 
L 1159 -1331 
L 581 -1331 
L 581 3500 
L 1159 3500 
L 1159 2969 
Q 1341 3281 1617 3432 
Q 1894 3584 2278 3584 
Q 2916 3584 3314 3078 
Q 3713 2572 3713 1747 
Q 3713 922 3314 415 
Q 2916 -91 2278 -91 
Q 1894 -91 1617 61 
Q 1341 213 1159 525 
z
M 3116 1747 
Q 3116 2381 2855 2742 
Q 2594 3103 2138 3103 
Q 1681 3103 1420 2742 
Q 1159 2381 1159 1747 
Q 1159 1113 1420 752 
Q 1681 391 2138 391 
Q 2594 391 2855 752 
Q 3116 1113 3116 1747 
z
" transform="scale(0.015625)"/>
      <path id="DejaVuSans-72" d="M 2631 2963 
Q 2534 3019 2420 3045 
Q 2306 3072 2169 3072 
Q 1681 3072 1420 2755 
Q 1159 2438 1159 1844 
L 1159 0 
L 581 0 
L 581 3500 
L 1159 3500 
L 1159 2956 
Q 1341 3275 1631 3429 
Q 1922 3584 2338 3584 
Q 2397 3584 2469 3576 
Q 2541 3569 2628 3553 
L 2631 2963 
z
" transform="scale(0.015625)"/>
      <path id="DejaVuSans-63" d="M 3122 3366 
L 3122 2828 
Q 2878 2963 2633 3030 
Q 2388 3097 2138 3097 
Q 1578 3097 1268 2742 
Q 959 2388 959 1747 
Q 959 1106 1268 751 
Q 1578 397 2138 397 
Q 2388 397 2633 464 
Q 2878 531 3122 666 
L 3122 134 
Q 2881 22 2623 -34 
Q 2366 -91 2075 -91 
Q 1284 -91 818 406 
Q 353 903 353 1747 
Q 353 2603 823 3093 
Q 1294 3584 2113 3584 
Q 2378 3584 2631 3529 
Q 2884 3475 3122 3366 
z
" transform="scale(0.015625)"/>
      <path id="DejaVuSans-6f" d="M 1959 3097 
Q 1497 3097 1228 2736 
Q 959 2375 959 1747 
Q 959 1119 1226 758 
Q 1494 397 1959 397 
Q 2419 397 2687 759 
Q 2956 1122 2956 1747 
Q 2956 2369 2687 2733 
Q 2419 3097 1959 3097 
z
M 1959 3584 
Q 2709 3584 3137 3096 
Q 3566 2609 3566 1747 
Q 3566 888 3137 398 
Q 2709 -91 1959 -91 
Q 1206 -91 779 398 
Q 353 888 353 1747 
Q 353 2609 779 3096 
Q 1206 3584 1959 3584 
z
" transform="scale(0.015625)"/>
      <path id="DejaVuSans-6e" d="M 3513 2113 
L 3513 0 
L 2938 0 
L 2938 2094 
Q 2938 2591 2744 2837 
Q 2550 3084 2163 3084 
Q 1697 3084 1428 2787 
Q 1159 2491 1159 1978 
L 1159 0 
L 581 0 
L 581 3500 
L 1159 3500 
L 1159 2956 
Q 1366 3272 1645 3428 
Q 1925 3584 2291 3584 
Q 2894 3584 3203 3211 
Q 3513 2838 3513 2113 
z
" transform="scale(0.015625)"/>
      <path id="DejaVuSans-64" d="M 2906 2969 
L 2906 4863 
L 3481 4863 
L 3481 0 
L 2906 0 
L 2906 525 
Q 2725 213 2448 61 
Q 2172 -91 1784 -91 
Q 1150 -91 751 415 
Q 353 922 353 1747 
Q 353 2572 751 3078 
Q 1150 3584 1784 3584 
Q 2172 3584 2448 3432 
Q 2725 3281 2906 2969 
z
M 947 1747 
Q 947 1113 1208 752 
Q 1469 391 1925 391 
Q 2381 391 2643 752 
Q 2906 1113 2906 1747 
Q 2906 2381 2643 2742 
Q 2381 3103 1925 3103 
Q 1469 3103 1208 2742 
Q 947 2381 947 1747 
z
" transform="scale(0.015625)"/>
     </defs>
     <use xlink:href="#DejaVuSans-52"/>
     <use xlink:href="#DejaVuSans-65" x="64.982422"/>
     <use xlink:href="#DejaVuSans-71" x="126.505859"/>
     <use xlink:href="#DejaVuSans-75" x="189.982422"/>
     <use xlink:href="#DejaVuSans-65" x="253.361328"/>
     <use xlink:href="#DejaVuSans-73" x="314.884766"/>
     <use xlink:href="#DejaVuSans-74" x="366.984375"/>
     <use xlink:href="#DejaVuSans-73" x="406.193359"/>
     <use xlink:href="#DejaVuSans-20" x="458.292969"/>
     <use xlink:href="#DejaVuSans-70" x="490.080078"/>
     <use xlink:href="#DejaVuSans-65" x="553.556641"/>
     <use xlink:href="#DejaVuSans-72" x="615.080078"/>
     <use xlink:href="#DejaVuSans-20" x="656.193359"/>
     <use xlink:href="#DejaVuSans-73" x="687.980469"/>
     <use xlink:href="#DejaVuSans-65" x="740.080078"/>
     <use xlink:href="#DejaVuSans-63" x="801.603516"/>
     <use xlink:href="#DejaVuSans-6f" x="856.583984"/>
     <use xlink:href="#DejaVuSans-6e" x="917.765625"/>
     <use xlink:href="#DejaVuSans-64" x="981.144531"/>
    </g>
   </g>
   <g id="legend_1">
    <g id="patch_7">
     <path d="M 46.65 118.386875 
L 117.823438 118.386875 
Q 119.823438 118.386875 119.823438 116.386875 
L 119.823438 29.318125 
Q 119.823438 27.318125 117.823438 27.318125 
L 46.65 27.318125 
Q 44.65 27.318125 44.65 29.318125 
L 44.65 116.386875 
Q 44.65 118.386875 46.65 118.386875 
z
" style="fill: #ffffff; opacity: 0.8; stroke: #cccccc; stroke-linejoin: miter"/>
    </g>
    <g id="line2d_20">
     <path d="M 48.65 35.416562 
L 58.65 35.416562 
L 68.65 35.416562 
" style="fill: none; stroke: #1f77b4; stroke-width: 1.5; stroke-linecap: square"/>
    </g>
    <g id="text_16">
     <!-- php -->
     <g transform="translate(76.65 38.916562) scale(0.1 -0.1)">
      <defs>
       <path id="DejaVuSans-68" d="M 3513 2113 
L 3513 0 
L 2938 0 
L 2938 2094 
Q 2938 2591 2744 2837 
Q 2550 3084 2163 3084 
Q 1697 3084 1428 2787 
Q 1159 2491 1159 1978 
L 1159 0 
L 581 0 
L 581 4863 
L 1159 4863 
L 1159 2956 
Q 1366 3272 1645 3428 
Q 1925 3584 2291 3584 
Q 2894 3584 3203 3211 
Q 3513 2838 3513 2113 
z
" transform="scale(0.015625)"/>
      </defs>
      <use xlink:href="#DejaVuSans-70"/>
      <use xlink:href="#DejaVuSans-68" x="63.476562"/>
      <use xlink:href="#DejaVuSans-70" x="126.855469"/>
     </g>
    </g>
    <g id="line2d_21">
     <path d="M 48.65 50.094687 
L 58.65 50.094687 
L 68.65 50.094687 
" style="fill: none; stroke: #ff7f0e; stroke-width: 1.5; stroke-linecap: square"/>
    </g>
    <g id="text_17">
     <!-- python -->
     <g transform="translate(76.65 53.594687) scale(0.1 -0.1)">
      <defs>
       <path id="DejaVuSans-79" d="M 2059 -325 
Q 1816 -950 1584 -1140 
Q 1353 -1331 966 -1331 
L 506 -1331 
L 506 -850 
L 844 -850 
Q 1081 -850 1212 -737 
Q 1344 -625 1503 -206 
L 1606 56 
L 191 3500 
L 800 3500 
L 1894 763 
L 2988 3500 
L 3597 3500 
L 2059 -325 
z
" transform="scale(0.015625)"/>
      </defs>
      <use xlink:href="#DejaVuSans-70"/>
      <use xlink:href="#DejaVuSans-79" x="63.476562"/>
      <use xlink:href="#DejaVuSans-74" x="122.65625"/>
      <use xlink:href="#DejaVuSans-68" x="161.865234"/>
      <use xlink:href="#DejaVuSans-6f" x="225.244141"/>
      <use xlink:href="#DejaVuSans-6e" x="286.425781"/>
     </g>
    </g>
    <g id="line2d_22">
     <path d="M 48.65 64.772812 
L 58.65 64.772812 
L 68.65 64.772812 
" style="fill: none; stroke: #2ca02c; stroke-width: 1.5; stroke-linecap: square"/>
    </g>
    <g id="text_18">
     <!-- dotnet -->
     <g transform="translate(76.65 68.272812) scale(0.1 -0.1)">
      <use xlink:href="#DejaVuSans-64"/>
      <use xlink:href="#DejaVuSans-6f" x="63.476562"/>
      <use xlink:href="#DejaVuSans-74" x="124.658203"/>
      <use xlink:href="#DejaVuSans-6e" x="163.867188"/>
      <use xlink:href="#DejaVuSans-65" x="227.246094"/>
      <use xlink:href="#DejaVuSans-74" x="288.769531"/>
     </g>
    </g>
    <g id="line2d_23">
     <path d="M 48.65 79.450938 
L 58.65 79.450938 
L 68.65 79.450938 
" style="fill: none; stroke: #d62728; stroke-width: 1.5; stroke-linecap: square"/>
    </g>
    <g id="text_19">
     <!-- go -->
     <g transform="translate(76.65 82.950938) scale(0.1 -0.1)">
      <defs>
       <path id="DejaVuSans-67" d="M 2906 1791 
Q 2906 2416 2648 2759 
Q 2391 3103 1925 3103 
Q 1463 3103 1205 2759 
Q 947 2416 947 1791 
Q 947 1169 1205 825 
Q 1463 481 1925 481 
Q 2391 481 2648 825 
Q 2906 1169 2906 1791 
z
M 3481 434 
Q 3481 -459 3084 -895 
Q 2688 -1331 1869 -1331 
Q 1566 -1331 1297 -1286 
Q 1028 -1241 775 -1147 
L 775 -588 
Q 1028 -725 1275 -790 
Q 1522 -856 1778 -856 
Q 2344 -856 2625 -561 
Q 2906 -266 2906 331 
L 2906 616 
Q 2728 306 2450 153 
Q 2172 0 1784 0 
Q 1141 0 747 490 
Q 353 981 353 1791 
Q 353 2603 747 3093 
Q 1141 3584 1784 3584 
Q 2172 3584 2450 3431 
Q 2728 3278 2906 2969 
L 2906 3500 
L 3481 3500 
L 3481 434 
z
" transform="scale(0.015625)"/>
      </defs>
      <use xlink:href="#DejaVuSans-67"/>
      <use xlink:href="#DejaVuSans-6f" x="63.476562"/>
     </g>
    </g>
    <g id="line2d_24">
     <path d="M 48.65 94.129063 
L 58.65 94.129063 
L 68.65 94.129063 
" style="fill: none; stroke: #9467bd; stroke-width: 1.5; stroke-linecap: square"/>
    </g>
    <g id="text_20">
     <!-- go-fiber -->
     <g transform="translate(76.65 97.629063) scale(0.1 -0.1)">
      <defs>
       <path id="DejaVuSans-2d" d="M 313 2009 
L 1997 2009 
L 1997 1497 
L 313 1497 
L 313 2009 
z
" transform="scale(0.015625)"/>
       <path id="DejaVuSans-66" d="M 2375 4863 
L 2375 4384 
L 1825 4384 
Q 1516 4384 1395 4259 
Q 1275 4134 1275 3809 
L 1275 3500 
L 2222 3500 
L 2222 3053 
L 1275 3053 
L 1275 0 
L 697 0 
L 697 3053 
L 147 3053 
L 147 3500 
L 697 3500 
L 697 3744 
Q 697 4328 969 4595 
Q 1241 4863 1831 4863 
L 2375 4863 
z
" transform="scale(0.015625)"/>
       <path id="DejaVuSans-62" d="M 3116 1747 
Q 3116 2381 2855 2742 
Q 2594 3103 2138 3103 
Q 1681 3103 1420 2742 
Q 1159 2381 1159 1747 
Q 1159 1113 1420 752 
Q 1681 391 2138 391 
Q 2594 391 2855 752 
Q 3116 1113 3116 1747 
z
M 1159 2969 
Q 1341 3281 1617 3432 
Q 1894 3584 2278 3584 
Q 2916 3584 3314 3078 
Q 3713 2572 3713 1747 
Q 3713 922 3314 415 
Q 2916 -91 2278 -91 
Q 1894 -91 1617 61 
Q 1341 213 1159 525 
L 1159 0 
L 581 0 
L 581 4863 
L 1159 4863 
L 1159 2969 
z
" transform="scale(0.015625)"/>
      </defs>
      <use xlink:href="#DejaVuSans-67"/>
      <use xlink:href="#DejaVuSans-6f" x="63.476562"/>
      <use xlink:href="#DejaVuSans-2d" x="126.533203"/>
      <use xlink:href="#DejaVuSans-66" x="162.617188"/>
      <use xlink:href="#DejaVuSans-69" x="197.822266"/>
      <use xlink:href="#DejaVuSans-62" x="225.605469"/>
      <use xlink:href="#DejaVuSans-65" x="289.082031"/>
      <use xlink:href="#DejaVuSans-72" x="350.605469"/>
     </g>
    </g>
    <g id="line2d_25">
     <path d="M 48.65 108.807187 
L 58.65 108.807187 
L 68.65 108.807187 
" style="fill: none; stroke: #8c564b; stroke-width: 1.5; stroke-linecap: square"/>
    </g>
    <g id="text_21">
     <!-- rust -->
     <g transform="translate(76.65 112.307187) scale(0.1 -0.1)">
      <use xlink:href="#DejaVuSans-72"/>
      <use xlink:href="#DejaVuSans-75" x="41.113281"/>
      <use xlink:href="#DejaVuSans-73" x="104.492188"/>
      <use xlink:href="#DejaVuSans-74" x="156.591797"/>
     </g>
    </g>
   </g>
  </g>
 </g>
 <defs>
  <clipPath id="p96efbe268a">
   <rect x="39.65" y="22.318125" width="669.6" height="166.32"/>
  </clipPath>
 </defs>
</svg>
