<?xml version="1.0" encoding="utf-8" standalone="no"?>
<!DOCTYPE svg PUBLIC "-//W3C//DTD SVG 1.1//EN"
  "http://www.w3.org/Graphics/SVG/1.1/DTD/svg11.dtd">
<svg xmlns:xlink="http://www.w3.org/1999/xlink" width="719.403337pt" height="226.194375pt" viewBox="0 0 719.403337 226.194375" xmlns="http://www.w3.org/2000/svg" version="1.1">
 <metadata>
  <rdf:RDF xmlns:dc="http://purl.org/dc/elements/1.1/" xmlns:cc="http://creativecommons.org/ns#" xmlns:rdf="http://www.w3.org/1999/02/22-rdf-syntax-ns#">
   <cc:Work>
    <dc:type rdf:resource="http://purl.org/dc/dcmitype/StillImage"/>
    <dc:date>2023-08-20T18:11:53.586776</dc:date>
    <dc:format>image/svg+xml</dc:format>
    <dc:creator>
     <cc:Agent>
      <dc:title>Matplotlib v3.7.2, https://matplotlib.org/</dc:title>
     </cc:Agent>
    </dc:creator>
   </cc:Work>
  </rdf:RDF>
 </metadata>
 <defs>
  <style type="text/css">*{stroke-linejoin: round; stroke-linecap: butt}</style>
 </defs>
 <g id="figure_1">
  <g id="patch_1">
   <path d="M 0 226.194375 
L 719.403337 226.194375 
L 719.403337 0 
L 0 0 
z
" style="fill: #ffffff"/>
  </g>
  <g id="axes_1">
   <g id="patch_2">
    <path d="M 39.65 188.638125 
L 709.25 188.638125 
L 709.25 22.318125 
L 39.65 22.318125 
z
" style="fill: #ffffff"/>
   </g>
   <g id="matplotlib.axis_1">
    <g id="xtick_1">
     <g id="line2d_1">
      <defs>
       <path id="mb3cb5f0eb7" d="M 0 0 
L 0 3.5 
" style="stroke: #000000; stroke-width: 0.8"/>
      </defs>
      <g>
       <use xlink:href="#mb3cb5f0eb7" x="39.65" y="188.638125" style="stroke: #000000; stroke-width: 0.8"/>
      </g>
     </g>
     <g id="text_1">
      <!-- 00:00:00 -->
      <g transform="translate(17.19375 203.236563) scale(0.1 -0.1)">
       <defs>
        <path id="DejaVuSans-30" d="M 2034 4250 
Q 1547 4250 1301 3770 
Q 1056 3291 1056 2328 
Q 1056 1369 1301 889 
Q 1547 409 2034 409 
Q 2525 409 2770 889 
Q 3016 1369 3016 2328 
Q 3016 3291 2770 3770 
Q 2525 4250 2034 4250 
z
M 2034 4750 
Q 2819 4750 3233 4129 
Q 3647 3509 3647 2328 
Q 3647 1150 3233 529 
Q 2819 -91 2034 -91 
Q 1250 -91 836 529 
Q 422 1150 422 2328 
Q 422 3509 836 4129 
Q 1250 4750 2034 4750 
z
" transform="scale(0.015625)"/>
        <path id="DejaVuSans-3a" d="M 750 794 
L 1409 794 
L 1409 0 
L 750 0 
L 750 794 
z
M 750 3309 
L 1409 3309 
L 1409 2516 
L 750 2516 
L 750 3309 
z
" transform="scale(0.015625)"/>
       </defs>
       <use xlink:href="#DejaVuSans-30"/>
       <use xlink:href="#DejaVuSans-30" x="63.623047"/>
       <use xlink:href="#DejaVuSans-3a" x="127.246094"/>
       <use xlink:href="#DejaVuSans-30" x="160.9375"/>
       <use xlink:href="#DejaVuSans-30" x="224.560547"/>
       <use xlink:href="#DejaVuSans-3a" x="288.183594"/>
       <use xlink:href="#DejaVuSans-30" x="321.875"/>
       <use xlink:href="#DejaVuSans-30" x="385.498047"/>
      </g>
     </g>
    </g>
    <g id="xtick_2">
     <g id="line2d_2">
      <g>
       <use xlink:href="#mb3cb5f0eb7" x="147.999515" y="188.638125" style="stroke: #000000; stroke-width: 0.8"/>
      </g>
     </g>
     <g id="text_2">
      <!-- 00:00:50 -->
      <g transform="translate(125.543265 203.236563) scale(0.1 -0.1)">
       <defs>
        <path id="DejaVuSans-35" d="M 691 4666 
L 3169 4666 
L 3169 4134 
L 1269 4134 
L 1269 2991 
Q 1406 3038 1543 3061 
Q 1681 3084 1819 3084 
Q 2600 3084 3056 2656 
Q 3513 2228 3513 1497 
Q 3513 744 3044 326 
Q 2575 -91 1722 -91 
Q 1428 -91 1123 -41 
Q 819 9 494 109 
L 494 744 
Q 775 591 1075 516 
Q 1375 441 1709 441 
Q 2250 441 2565 725 
Q 2881 1009 2881 1497 
Q 2881 1984 2565 2268 
Q 2250 2553 1709 2553 
Q 1456 2553 1204 2497 
Q 953 2441 691 2322 
L 691 4666 
z
" transform="scale(0.015625)"/>
       </defs>
       <use xlink:href="#DejaVuSans-30"/>
       <use xlink:href="#DejaVuSans-30" x="63.623047"/>
       <use xlink:href="#DejaVuSans-3a" x="127.246094"/>
       <use xlink:href="#DejaVuSans-30" x="160.9375"/>
       <use xlink:href="#DejaVuSans-30" x="224.560547"/>
       <use xlink:href="#DejaVuSans-3a" x="288.183594"/>
       <use xlink:href="#DejaVuSans-35" x="321.875"/>
       <use xlink:href="#DejaVuSans-30" x="385.498047"/>
      </g>
     </g>
    </g>
    <g id="xtick_3">
     <g id="line2d_3">
      <g>
       <use xlink:href="#mb3cb5f0eb7" x="256.349029" y="188.638125" style="stroke: #000000; stroke-width: 0.8"/>
      </g>
     </g>
     <g id="text_3">
      <!-- 00:01:40 -->
      <g transform="translate(233.892779 203.236563) scale(0.1 -0.1)">
       <defs>
        <path id="DejaVuSans-31" d="M 794 531 
L 1825 531 
L 1825 4091 
L 703 3866 
L 703 4441 
L 1819 4666 
L 2450 4666 
L 2450 531 
L 3481 531 
L 3481 0 
L 794 0 
L 794 531 
z
" transform="scale(0.015625)"/>
        <path id="DejaVuSans-34" d="M 2419 4116 
L 825 1625 
L 2419 1625 
L 2419 4116 
z
M 2253 4666 
L 3047 4666 
L 3047 1625 
L 3713 1625 
L 3713 1100 
L 3047 1100 
L 3047 0 
L 2419 0 
L 2419 1100 
L 313 1100 
L 313 1709 
L 2253 4666 
z
" transform="scale(0.015625)"/>
       </defs>
       <use xlink:href="#DejaVuSans-30"/>
       <use xlink:href="#DejaVuSans-30" x="63.623047"/>
       <use xlink:href="#DejaVuSans-3a" x="127.246094"/>
       <use xlink:href="#DejaVuSans-30" x="160.9375"/>
       <use xlink:href="#DejaVuSans-31" x="224.560547"/>
       <use xlink:href="#DejaVuSans-3a" x="288.183594"/>
       <use xlink:href="#DejaVuSans-34" x="321.875"/>
       <use xlink:href="#DejaVuSans-30" x="385.498047"/>
      </g>
     </g>
    </g>
    <g id="xtick_4">
     <g id="line2d_4">
      <g>
       <use xlink:href="#mb3cb5f0eb7" x="364.698544" y="188.638125" style="stroke: #000000; stroke-width: 0.8"/>
      </g>
     </g>
     <g id="text_4">
      <!-- 00:02:30 -->
      <g transform="translate(342.242294 203.236563) scale(0.1 -0.1)">
       <defs>
        <path id="DejaVuSans-32" d="M 1228 531 
L 3431 531 
L 3431 0 
L 469 0 
L 469 531 
Q 828 903 1448 1529 
Q 2069 2156 2228 2338 
Q 2531 2678 2651 2914 
Q 2772 3150 2772 3378 
Q 2772 3750 2511 3984 
Q 2250 4219 1831 4219 
Q 1534 4219 1204 4116 
Q 875 4013 500 3803 
L 500 4441 
Q 881 4594 1212 4672 
Q 1544 4750 1819 4750 
Q 2544 4750 2975 4387 
Q 3406 4025 3406 3419 
Q 3406 3131 3298 2873 
Q 3191 2616 2906 2266 
Q 2828 2175 2409 1742 
Q 1991 1309 1228 531 
z
" transform="scale(0.015625)"/>
        <path id="DejaVuSans-33" d="M 2597 2516 
Q 3050 2419 3304 2112 
Q 3559 1806 3559 1356 
Q 3559 666 3084 287 
Q 2609 -91 1734 -91 
Q 1441 -91 1130 -33 
Q 819 25 488 141 
L 488 750 
Q 750 597 1062 519 
Q 1375 441 1716 441 
Q 2309 441 2620 675 
Q 2931 909 2931 1356 
Q 2931 1769 2642 2001 
Q 2353 2234 1838 2234 
L 1294 2234 
L 1294 2753 
L 1863 2753 
Q 2328 2753 2575 2939 
Q 2822 3125 2822 3475 
Q 2822 3834 2567 4026 
Q 2313 4219 1838 4219 
Q 1578 4219 1281 4162 
Q 984 4106 628 3988 
L 628 4550 
Q 988 4650 1302 4700 
Q 1616 4750 1894 4750 
Q 2613 4750 3031 4423 
Q 3450 4097 3450 3541 
Q 3450 3153 3228 2886 
Q 3006 2619 2597 2516 
z
" transform="scale(0.015625)"/>
       </defs>
       <use xlink:href="#DejaVuSans-30"/>
       <use xlink:href="#DejaVuSans-30" x="63.623047"/>
       <use xlink:href="#DejaVuSans-3a" x="127.246094"/>
       <use xlink:href="#DejaVuSans-30" x="160.9375"/>
       <use xlink:href="#DejaVuSans-32" x="224.560547"/>
       <use xlink:href="#DejaVuSans-3a" x="288.183594"/>
       <use xlink:href="#DejaVuSans-33" x="321.875"/>
       <use xlink:href="#DejaVuSans-30" x="385.498047"/>
      </g>
     </g>
    </g>
    <g id="xtick_5">
     <g id="line2d_5">
      <g>
       <use xlink:href="#mb3cb5f0eb7" x="473.048058" y="188.638125" style="stroke: #000000; stroke-width: 0.8"/>
      </g>
     </g>
     <g id="text_5">
      <!-- 00:03:20 -->
      <g transform="translate(450.591808 203.236563) scale(0.1 -0.1)">
       <use xlink:href="#DejaVuSans-30"/>
       <use xlink:href="#DejaVuSans-30" x="63.623047"/>
       <use xlink:href="#DejaVuSans-3a" x="127.246094"/>
       <use xlink:href="#DejaVuSans-30" x="160.9375"/>
       <use xlink:href="#DejaVuSans-33" x="224.560547"/>
       <use xlink:href="#DejaVuSans-3a" x="288.183594"/>
       <use xlink:href="#DejaVuSans-32" x="321.875"/>
       <use xlink:href="#DejaVuSans-30" x="385.498047"/>
      </g>
     </g>
    </g>
    <g id="xtick_6">
     <g id="line2d_6">
      <g>
       <use xlink:href="#mb3cb5f0eb7" x="581.397573" y="188.638125" style="stroke: #000000; stroke-width: 0.8"/>
      </g>
     </g>
     <g id="text_6">
      <!-- 00:04:10 -->
      <g transform="translate(558.941323 203.236563) scale(0.1 -0.1)">
       <use xlink:href="#DejaVuSans-30"/>
       <use xlink:href="#DejaVuSans-30" x="63.623047"/>
       <use xlink:href="#DejaVuSans-3a" x="127.246094"/>
       <use xlink:href="#DejaVuSans-30" x="160.9375"/>
       <use xlink:href="#DejaVuSans-34" x="224.560547"/>
       <use xlink:href="#DejaVuSans-3a" x="288.183594"/>
       <use xlink:href="#DejaVuSans-31" x="321.875"/>
       <use xlink:href="#DejaVuSans-30" x="385.498047"/>
      </g>
     </g>
    </g>
    <g id="xtick_7">
     <g id="line2d_7">
      <g>
       <use xlink:href="#mb3cb5f0eb7" x="689.747087" y="188.638125" style="stroke: #000000; stroke-width: 0.8"/>
      </g>
     </g>
     <g id="text_7">
      <!-- 00:05:00 -->
      <g transform="translate(667.290837 203.236563) scale(0.1 -0.1)">
       <use xlink:href="#DejaVuSans-30"/>
       <use xlink:href="#DejaVuSans-30" x="63.623047"/>
       <use xlink:href="#DejaVuSans-3a" x="127.246094"/>
       <use xlink:href="#DejaVuSans-30" x="160.9375"/>
       <use xlink:href="#DejaVuSans-35" x="224.560547"/>
       <use xlink:href="#DejaVuSans-3a" x="288.183594"/>
       <use xlink:href="#DejaVuSans-30" x="321.875"/>
       <use xlink:href="#DejaVuSans-30" x="385.498047"/>
      </g>
     </g>
    </g>
    <g id="text_8">
     <!-- Time -->
     <g transform="translate(362.216406 216.914688) scale(0.1 -0.1)">
      <defs>
       <path id="DejaVuSans-54" d="M -19 4666 
L 3928 4666 
L 3928 4134 
L 2272 4134 
L 2272 0 
L 1638 0 
L 1638 4134 
L -19 4134 
L -19 4666 
z
" transform="scale(0.015625)"/>
       <path id="DejaVuSans-69" d="M 603 3500 
L 1178 3500 
L 1178 0 
L 603 0 
L 603 3500 
z
M 603 4863 
L 1178 4863 
L 1178 4134 
L 603 4134 
L 603 4863 
z
" transform="scale(0.015625)"/>
       <path id="DejaVuSans-6d" d="M 3328 2828 
Q 3544 3216 3844 3400 
Q 4144 3584 4550 3584 
Q 5097 3584 5394 3201 
Q 5691 2819 5691 2113 
L 5691 0 
L 5113 0 
L 5113 2094 
Q 5113 2597 4934 2840 
Q 4756 3084 4391 3084 
Q 3944 3084 3684 2787 
Q 3425 2491 3425 1978 
L 3425 0 
L 2847 0 
L 2847 2094 
Q 2847 2600 2669 2842 
Q 2491 3084 2119 3084 
Q 1678 3084 1418 2786 
Q 1159 2488 1159 1978 
L 1159 0 
L 581 0 
L 581 3500 
L 1159 3500 
L 1159 2956 
Q 1356 3278 1631 3431 
Q 1906 3584 2284 3584 
Q 2666 3584 2933 3390 
Q 3200 3197 3328 2828 
z
" transform="scale(0.015625)"/>
       <path id="DejaVuSans-65" d="M 3597 1894 
L 3597 1613 
L 953 1613 
Q 991 1019 1311 708 
Q 1631 397 2203 397 
Q 2534 397 2845 478 
Q 3156 559 3463 722 
L 3463 178 
Q 3153 47 2828 -22 
Q 2503 -91 2169 -91 
Q 1331 -91 842 396 
Q 353 884 353 1716 
Q 353 2575 817 3079 
Q 1281 3584 2069 3584 
Q 2775 3584 3186 3129 
Q 3597 2675 3597 1894 
z
M 3022 2063 
Q 3016 2534 2758 2815 
Q 2500 3097 2075 3097 
Q 1594 3097 1305 2825 
Q 1016 2553 972 2059 
L 3022 2063 
z
" transform="scale(0.015625)"/>
      </defs>
      <use xlink:href="#DejaVuSans-54"/>
      <use xlink:href="#DejaVuSans-69" x="57.958984"/>
      <use xlink:href="#DejaVuSans-6d" x="85.742188"/>
      <use xlink:href="#DejaVuSans-65" x="183.154297"/>
     </g>
    </g>
   </g>
   <g id="matplotlib.axis_2">
    <g id="ytick_1">
     <g id="line2d_8">
      <defs>
       <path id="mf46d11b190" d="M 0 0 
L -3.5 0 
" style="stroke: #000000; stroke-width: 0.8"/>
      </defs>
      <g>
       <use xlink:href="#mf46d11b190" x="39.65" y="181.124335" style="stroke: #000000; stroke-width: 0.8"/>
      </g>
     </g>
     <g id="text_9">
      <!-- 0 -->
      <g transform="translate(26.2875 184.923554) scale(0.1 -0.1)">
       <use xlink:href="#DejaVuSans-30"/>
      </g>
     </g>
    </g>
    <g id="ytick_2">
     <g id="line2d_9">
      <g>
       <use xlink:href="#mf46d11b190" x="39.65" y="158.019201" style="stroke: #000000; stroke-width: 0.8"/>
      </g>
     </g>
     <g id="text_10">
      <!-- 500 -->
      <g transform="translate(13.5625 161.81842) scale(0.1 -0.1)">
       <use xlink:href="#DejaVuSans-35"/>
       <use xlink:href="#DejaVuSans-30" x="63.623047"/>
       <use xlink:href="#DejaVuSans-30" x="127.246094"/>
      </g>
     </g>
    </g>
    <g id="ytick_3">
     <g id="line2d_10">
      <g>
       <use xlink:href="#mf46d11b190" x="39.65" y="134.914066" style="stroke: #000000; stroke-width: 0.8"/>
      </g>
     </g>
     <g id="text_11">
      <!-- 1000 -->
      <g transform="translate(7.2 138.713285) scale(0.1 -0.1)">
       <use xlink:href="#DejaVuSans-31"/>
       <use xlink:href="#DejaVuSans-30" x="63.623047"/>
       <use xlink:href="#DejaVuSans-30" x="127.246094"/>
       <use xlink:href="#DejaVuSans-30" x="190.869141"/>
      </g>
     </g>
    </g>
    <g id="ytick_4">
     <g id="line2d_11">
      <g>
       <use xlink:href="#mf46d11b190" x="39.65" y="111.808932" style="stroke: #000000; stroke-width: 0.8"/>
      </g>
     </g>
     <g id="text_12">
      <!-- 1500 -->
      <g transform="translate(7.2 115.608151) scale(0.1 -0.1)">
       <use xlink:href="#DejaVuSans-31"/>
       <use xlink:href="#DejaVuSans-35" x="63.623047"/>
       <use xlink:href="#DejaVuSans-30" x="127.246094"/>
       <use xlink:href="#DejaVuSans-30" x="190.869141"/>
      </g>
     </g>
    </g>
    <g id="ytick_5">
     <g id="line2d_12">
      <g>
       <use xlink:href="#mf46d11b190" x="39.65" y="88.703797" style="stroke: #000000; stroke-width: 0.8"/>
      </g>
     </g>
     <g id="text_13">
      <!-- 2000 -->
      <g transform="translate(7.2 92.503016) scale(0.1 -0.1)">
       <use xlink:href="#DejaVuSans-32"/>
       <use xlink:href="#DejaVuSans-30" x="63.623047"/>
       <use xlink:href="#DejaVuSans-30" x="127.246094"/>
       <use xlink:href="#DejaVuSans-30" x="190.869141"/>
      </g>
     </g>
    </g>
    <g id="ytick_6">
     <g id="line2d_13">
      <g>
       <use xlink:href="#mf46d11b190" x="39.65" y="65.598663" style="stroke: #000000; stroke-width: 0.8"/>
      </g>
     </g>
     <g id="text_14">
      <!-- 2500 -->
      <g transform="translate(7.2 69.397882) scale(0.1 -0.1)">
       <use xlink:href="#DejaVuSans-32"/>
       <use xlink:href="#DejaVuSans-35" x="63.623047"/>
       <use xlink:href="#DejaVuSans-30" x="127.246094"/>
       <use xlink:href="#DejaVuSans-30" x="190.869141"/>
      </g>
     </g>
    </g>
    <g id="ytick_7">
     <g id="line2d_14">
      <g>
       <use xlink:href="#mf46d11b190" x="39.65" y="42.493528" style="stroke: #000000; stroke-width: 0.8"/>
      </g>
     </g>
     <g id="text_15">
      <!-- 3000 -->
      <g transform="translate(7.2 46.292747) scale(0.1 -0.1)">
       <use xlink:href="#DejaVuSans-33"/>
       <use xlink:href="#DejaVuSans-30" x="63.623047"/>
       <use xlink:href="#DejaVuSans-30" x="127.246094"/>
       <use xlink:href="#DejaVuSans-30" x="190.869141"/>
      </g>
     </g>
    </g>
   </g>
   <g id="line2d_15">
    <path d="M 39.65 181.078125 
L 41.81699 180.985704 
L 43.983981 180.939494 
L 46.150971 180.847074 
L 48.317961 180.800863 
L 50.484951 180.708443 
L 52.651942 180.662233 
L 54.818932 180.569812 
L 56.985922 180.523602 
L 59.152913 180.431181 
L 61.319903 180.338761 
L 63.486893 180.29255 
L 65.653883 180.24634 
L 67.820874 180.15392 
L 69.987864 180.061499 
L 72.154854 180.061499 
L 74.321845 179.922868 
L 76.488835 179.876658 
L 78.655825 179.830448 
L 80.822816 179.738027 
L 82.989806 179.738027 
L 85.156796 179.784237 
L 87.323786 179.691817 
L 89.490777 179.738027 
L 91.657767 179.738027 
L 93.824757 179.738027 
L 95.991748 179.738027 
L 98.158738 179.738027 
L 100.325728 179.738027 
L 102.492718 179.738027 
L 104.659709 179.691817 
L 106.826699 179.553186 
L 108.993689 179.506976 
L 111.16068 179.414555 
L 113.32767 179.322135 
L 115.49466 179.275925 
L 117.66165 179.183504 
L 119.828641 179.091083 
L 121.995631 179.044873 
L 124.162621 178.952453 
L 126.329612 178.860032 
L 128.496602 178.721401 
L 130.663592 178.675191 
L 132.830583 178.675191 
L 134.997573 178.49035 
L 137.164563 178.44414 
L 139.331553 178.397929 
L 141.498544 178.259299 
L 143.665534 178.259299 
L 145.832524 178.120668 
L 147.999515 178.120668 
L 150.166505 178.120668 
L 152.333495 178.120668 
L 154.500485 178.074458 
L 156.667476 178.166878 
L 158.834466 178.120668 
L 161.001456 178.120668 
L 163.168447 178.120668 
L 165.335437 178.120668 
L 167.502427 178.120668 
L 169.669417 177.889616 
L 171.836408 177.704775 
L 174.003398 177.473724 
L 176.170388 177.288883 
L 178.337379 177.057832 
L 180.504369 176.82678 
L 182.671359 176.595729 
L 184.83835 176.457098 
L 187.00534 176.179836 
L 189.17233 175.902575 
L 191.33932 175.763944 
L 193.506311 175.579103 
L 195.673301 175.301841 
L 197.840291 175.117 
L 200.007282 174.932159 
L 202.174272 174.654898 
L 204.341262 174.470057 
L 206.508252 174.146585 
L 208.675243 174.054164 
L 210.842233 173.961744 
L 213.009223 174.007954 
L 215.176214 174.701108 
L 217.343204 174.007954 
L 219.510194 173.499641 
L 221.677184 172.898907 
L 223.844175 173.40722 
L 226.011165 173.776903 
L 228.178155 173.823113 
L 230.345146 173.730692 
L 232.512136 173.730692 
L 234.679126 173.40722 
L 236.846117 172.991328 
L 239.013107 172.852697 
L 241.180097 172.898907 
L 243.347087 172.714066 
L 245.514078 173.36101 
L 247.681068 173.222379 
L 249.848058 172.806487 
L 252.015049 172.760277 
L 254.182039 173.222379 
L 256.349029 173.222379 
L 258.516019 173.129959 
L 260.68301 173.3148 
L 262.85 176.872991 
" clip-path="url(#pfcf8138b23)" style="fill: none; stroke: #1f77b4; stroke-width: 1.5; stroke-linecap: square"/>
   </g>
   <g id="line2d_16">
    <path d="M 39.65 181.031915 
L 50.484951 180.708443 
L 63.486893 180.24634 
L 76.488835 179.876658 
L 80.822816 179.738027 
L 104.659709 179.645607 
L 126.329612 178.813822 
L 132.830583 178.58277 
L 145.832524 178.120668 
L 147.999515 178.166878 
L 150.166505 178.074458 
L 152.333495 178.166878 
L 154.500485 178.074458 
L 161.001456 178.166878 
L 167.502427 178.074458 
L 187.00534 176.087416 
L 195.673301 175.255631 
L 200.007282 174.747318 
L 202.174272 174.608687 
L 204.341262 174.331426 
L 206.508252 174.192795 
L 210.842233 173.684482 
L 213.009223 173.823113 
L 219.510194 173.730692 
L 223.844175 173.823113 
L 226.011165 173.730692 
L 230.345146 173.823113 
L 232.512136 173.592061 
L 236.846117 172.806487 
L 239.013107 172.298174 
L 243.347087 171.60502 
L 245.514078 171.050497 
L 247.681068 170.727025 
L 249.848058 170.126291 
L 252.015049 169.84903 
L 258.516019 168.462722 
L 260.68301 168.18546 
L 262.85 167.630937 
L 265.01699 167.261255 
L 267.183981 166.752942 
L 271.517961 166.105998 
L 273.684951 165.505264 
L 275.851942 165.228003 
L 278.018932 165.366634 
L 280.185922 165.228003 
L 282.352913 165.320423 
L 284.519903 165.181792 
L 286.686893 165.320423 
L 288.853883 165.181792 
L 293.187864 165.366634 
L 295.354854 165.320423 
L 299.688835 164.396218 
L 301.855825 163.564433 
L 308.356796 161.716022 
L 310.523786 160.791817 
L 312.690777 160.098663 
L 314.857767 159.266878 
L 317.024757 158.850986 
L 319.191748 158.111621 
L 321.358738 157.187416 
L 323.525728 156.679103 
L 330.026699 154.4148 
L 332.193689 154.137538 
L 334.36068 153.028492 
L 336.52767 152.289127 
L 340.86165 151.133871 
L 343.028641 151.272502 
L 345.195631 151.226291 
L 349.529612 151.457343 
L 351.696602 150.856609 
L 353.863592 151.503553 
L 356.030583 151.04145 
L 358.197573 151.272502 
L 360.364563 151.226291 
L 362.531553 150.94903 
L 364.698544 149.655142 
L 369.032524 147.806731 
L 371.199515 146.605264 
L 373.366505 145.727269 
L 375.533495 144.525802 
L 377.700485 143.832648 
L 379.867476 142.261499 
L 384.201456 140.597929 
L 386.368447 139.627514 
L 388.535437 138.010154 
L 390.702427 137.317 
L 392.869417 136.346585 
L 395.036408 135.098907 
L 397.203398 134.082281 
L 399.370388 133.204286 
L 401.537379 132.04903 
L 403.704369 130.616511 
L 405.871359 130.755142 
L 408.03835 130.293039 
L 410.20534 130.154409 
L 412.37233 130.708932 
L 414.53932 129.877147 
L 416.706311 130.616511 
L 418.873301 129.877147 
L 421.040291 130.246829 
L 423.207282 130.200619 
L 425.374272 130.616511 
L 429.708252 128.72189 
L 431.875243 127.150741 
L 436.209223 123.50013 
L 438.376214 123.038027 
L 440.543204 122.113822 
L 442.710194 119.803308 
L 444.877184 119.664678 
L 447.044175 116.014066 
L 449.211165 122.067612 
L 451.378155 116.799641 
L 453.545146 117.354164 
L 455.712136 117.307954 
L 457.879126 117.677636 
L 460.046117 125.579592 
L 462.213107 115.875436 
L 464.380097 119.988149 
L 466.547087 114.99744 
L 468.714078 118.001108 
L 473.048058 121.282037 
L 475.215049 115.274702 
L 477.382039 120.03436 
L 479.549029 116.106487 
L 481.716019 114.442917 
L 483.88301 122.714555 
L 486.05 111.53167 
L 488.21699 117.631426 
L 490.383981 122.021401 
L 492.550971 122.344873 
L 494.717961 121.420668 
L 496.884951 118.786682 
L 499.051942 134.128492 
L 501.218932 135.792061 
L 503.385922 137.686682 
L 505.552913 160.884237 
L 509.886893 123.222868 
L 512.053883 164.81211 
L 514.220874 165.828736 
L 514.220874 165.828736 
" clip-path="url(#pfcf8138b23)" style="fill: none; stroke: #ff7f0e; stroke-width: 1.5; stroke-linecap: square"/>
   </g>
   <g id="line2d_17">
    <path d="M 39.65 181.031915 
L 50.484951 180.662233 
L 59.152913 180.384971 
L 65.653883 180.20013 
L 74.321845 179.922868 
L 80.822816 179.738027 
L 104.659709 179.645607 
L 126.329612 178.813822 
L 130.663592 178.675191 
L 134.997573 178.49035 
L 143.665534 178.120668 
L 147.999515 178.120668 
L 165.335437 178.166878 
L 174.003398 177.381303 
L 176.170388 177.104042 
L 180.504369 176.73436 
L 189.17233 175.810154 
L 191.33932 175.717734 
L 195.673301 175.163211 
L 197.840291 175.07079 
L 202.174272 174.516267 
L 206.508252 174.192795 
L 208.675243 173.823113 
L 230.345146 173.730692 
L 232.512136 173.684482 
L 234.679126 173.083748 
L 241.180097 171.974702 
L 245.514078 171.004286 
L 247.681068 170.588394 
L 249.848058 170.311132 
L 252.015049 169.710399 
L 254.182039 169.386927 
L 256.349029 168.878614 
L 262.85 167.769568 
L 265.01699 167.168834 
L 271.517961 165.967367 
L 273.684951 165.505264 
L 275.851942 165.228003 
L 278.018932 165.320423 
L 284.519903 165.228003 
L 288.853883 165.320423 
L 293.187864 165.135582 
L 295.354854 165.320423 
L 297.521845 165.089372 
L 301.855825 163.518223 
L 304.022816 162.825069 
L 306.189806 162.270546 
L 308.356796 161.438761 
L 310.523786 160.745607 
L 312.690777 160.191083 
L 314.857767 159.313088 
L 319.191748 157.88057 
L 321.358738 157.418467 
L 323.525728 156.401841 
L 325.692718 156.448052 
L 327.859709 154.738272 
L 330.026699 154.36859 
L 332.193689 153.721646 
L 334.36068 153.213333 
L 336.52767 152.289127 
L 338.69466 151.595973 
L 340.86165 151.133871 
L 343.028641 151.364922 
L 345.195631 151.180081 
L 356.030583 151.180081 
L 358.197573 151.318712 
L 362.531553 151.04145 
L 364.698544 149.562722 
L 366.865534 148.777147 
L 369.032524 147.52947 
L 371.199515 146.651475 
L 373.366505 145.542428 
L 377.700485 143.601597 
L 379.867476 143.786438 
L 382.034466 140.089616 
L 384.201456 140.089616 
L 386.368447 139.442673 
L 388.535437 138.056365 
L 390.702427 137.317 
L 392.869417 135.930692 
L 395.036408 135.653431 
L 397.203398 133.481548 
L 399.370388 134.775436 
L 401.537379 132.09524 
L 403.704369 130.939983 
L 405.871359 130.200619 
L 408.03835 130.33925 
L 412.37233 130.293039 
L 414.53932 130.477881 
L 416.706311 132.418712 
L 418.873301 130.246829 
L 421.040291 130.246829 
L 425.374272 130.43167 
L 427.541262 129.738516 
L 429.708252 127.982526 
L 431.875243 126.87348 
L 436.209223 124.054653 
L 438.376214 122.391083 
L 442.710194 119.433626 
L 444.877184 118.37079 
L 447.044175 118.001108 
L 449.211165 114.95123 
L 451.378155 114.119445 
L 453.545146 112.317245 
L 455.712136 110.330203 
L 457.879126 109.313577 
L 460.046117 110.792306 
L 462.213107 106.818223 
L 464.380097 104.60013 
L 468.714078 102.289616 
L 470.881068 104.969812 
L 473.048058 101.319201 
L 475.215049 100.857098 
L 479.549029 101.365411 
L 481.716019 105.293284 
L 483.88301 100.626047 
L 486.05 101.919934 
L 488.21699 100.533626 
L 490.383981 109.683259 
L 492.550971 96.651964 
L 494.717961 98.500374 
L 496.884951 95.866389 
L 499.051942 95.034604 
L 501.218932 93.971768 
L 503.385922 90.87568 
L 505.552913 88.888638 
L 507.719903 94.803553 
L 509.886893 94.064189 
L 512.053883 89.396951 
L 514.220874 81.494995 
L 516.387864 99.054898 
L 518.554854 93.417245 
L 520.721845 82.32678 
L 522.888835 88.426536 
L 525.055825 103.768345 
L 527.222816 87.733382 
L 529.389806 84.360032 
L 531.556796 99.886682 
L 533.723786 85.74634 
L 535.890777 89.1659 
L 538.057767 144.479592 
L 540.224757 121.328247 
L 542.391748 156.12458 
L 544.558738 158.435093 
L 546.725728 121.097196 
L 548.892718 120.819934 
L 551.059709 150.209665 
L 553.226699 112.363455 
L 555.393689 147.159788 
L 557.56068 97.66859 
L 559.72767 150.163455 
L 561.89466 179.275925 
L 561.89466 179.275925 
" clip-path="url(#pfcf8138b23)" style="fill: none; stroke: #2ca02c; stroke-width: 1.5; stroke-linecap: square"/>
   </g>
   <g id="line2d_18">
    <path d="M 39.65 181.031915 
L 50.484951 180.662233 
L 59.152913 180.384971 
L 67.820874 180.107709 
L 89.490777 179.738027 
L 102.492718 179.691817 
L 121.995631 178.952453 
L 128.496602 178.721401 
L 143.665534 178.120668 
L 145.832524 178.166878 
L 147.999515 178.074458 
L 154.500485 178.166878 
L 161.001456 178.120668 
L 167.502427 178.028247 
L 187.00534 175.994995 
L 189.17233 175.902575 
L 191.33932 175.579103 
L 200.007282 174.747318 
L 208.675243 173.915533 
L 210.842233 173.776903 
L 213.009223 173.823113 
L 215.176214 173.730692 
L 223.844175 173.823113 
L 228.178155 173.730692 
L 230.345146 173.869323 
L 239.013107 172.344384 
L 249.848058 170.080081 
L 256.349029 168.924824 
L 258.516019 168.416511 
L 260.68301 168.046829 
L 262.85 167.538516 
L 265.01699 167.215044 
L 267.183981 166.706731 
L 275.851942 165.274213 
L 282.352913 165.228003 
L 288.853883 165.366634 
L 291.020874 165.228003 
L 293.187864 165.366634 
L 297.521845 164.904531 
L 299.688835 164.303797 
L 304.022816 162.825069 
L 312.690777 159.960032 
L 314.857767 159.266878 
L 317.024757 158.712355 
L 319.191748 157.83436 
L 321.358738 157.233626 
L 325.692718 155.754898 
L 332.193689 153.721646 
L 336.52767 152.242917 
L 338.69466 151.780814 
L 340.86165 150.94903 
L 343.028641 151.226291 
L 345.195631 151.180081 
L 347.362621 151.411132 
L 349.529612 151.08766 
L 351.696602 151.226291 
L 353.863592 151.133871 
L 358.197573 151.503553 
L 362.531553 150.486927 
L 364.698544 149.747563 
L 366.865534 148.684726 
L 369.032524 147.437049 
L 371.199515 146.651475 
L 373.366505 145.357587 
L 377.700485 143.509176 
L 379.867476 142.076658 
L 382.034466 141.429714 
L 384.201456 139.997196 
L 388.535437 138.148785 
L 390.702427 137.22458 
L 392.869417 135.884482 
L 395.036408 135.145118 
L 397.203398 133.943651 
L 399.370388 132.973235 
L 401.537379 131.725558 
L 403.704369 130.847563 
L 405.871359 130.108198 
L 408.03835 130.939983 
L 410.20534 139.257832 
L 412.37233 128.121157 
L 414.53932 128.62947 
L 416.706311 131.956609 
L 418.873301 128.167367 
L 421.040291 134.498174 
L 423.207282 128.259788 
L 425.374272 130.015778 
L 427.541262 129.969568 
L 429.708252 127.612844 
L 431.875243 129.692306 
L 434.042233 130.246829 
L 436.209223 121.004775 
L 438.376214 120.172991 
L 440.543204 120.958565 
L 442.710194 120.12678 
L 444.877184 120.958565 
L 447.044175 113.703553 
L 449.211165 116.70722 
L 451.378155 110.607465 
L 453.545146 119.757098 
L 455.712136 107.696218 
L 457.879126 115.136071 
L 460.046117 103.121401 
L 462.213107 120.404042 
L 464.380097 102.98277 
L 466.547087 125.625802 
L 468.714078 101.781303 
L 470.881068 114.350497 
L 473.048058 100.441206 
L 475.215049 135.56101 
L 477.382039 82.003308 
L 479.549029 107.557587 
L 481.716019 101.504042 
L 483.88301 127.381792 
L 486.05 73.546829 
L 488.21699 140.320668 
L 490.383981 74.008932 
L 492.550971 137.871524 
L 494.717961 62.687416 
L 496.884951 134.821646 
L 499.051942 58.066389 
L 501.218932 114.673969 
L 503.385922 71.97568 
L 505.552913 119.479836 
L 507.719903 55.755876 
L 509.886893 102.797929 
L 512.053883 72.622624 
L 514.220874 85.238027 
L 516.387864 86.994017 
L 518.554854 77.567123 
L 520.721845 107.234115 
L 522.888835 51.966634 
L 525.055825 162.825069 
L 527.222816 118.786682 
L 529.389806 144.803064 
L 531.556796 135.976903 
L 533.723786 117.954898 
L 535.890777 152.104286 
L 538.057767 141.013822 
L 540.224757 149.839983 
L 542.391748 157.92678 
L 544.558738 128.906731 
L 546.725728 133.389127 
L 546.725728 133.389127 
" clip-path="url(#pfcf8138b23)" style="fill: none; stroke: #d62728; stroke-width: 1.5; stroke-linecap: square"/>
   </g>
   <g id="line2d_19">
    <path d="M 39.65 181.078125 
L 52.651942 180.616022 
L 59.152913 180.431181 
L 61.319903 180.29255 
L 65.653883 180.20013 
L 74.321845 179.969079 
L 76.488835 179.830448 
L 100.325728 179.738027 
L 111.16068 179.414555 
L 134.997573 178.49035 
L 139.331553 178.397929 
L 141.498544 178.213088 
L 145.832524 178.166878 
L 147.999515 178.074458 
L 152.333495 178.166878 
L 154.500485 178.074458 
L 158.834466 178.166878 
L 161.001456 178.074458 
L 163.168447 178.166878 
L 169.669417 177.889616 
L 187.00534 176.133626 
L 193.506311 175.532893 
L 197.840291 174.978369 
L 200.007282 174.885949 
L 206.508252 174.146585 
L 208.675243 174.007954 
L 210.842233 173.730692 
L 213.009223 173.869323 
L 215.176214 173.730692 
L 217.343204 173.823113 
L 223.844175 173.776903 
L 226.011165 173.869323 
L 228.178155 173.730692 
L 232.512136 173.776903 
L 236.846117 172.852697 
L 239.013107 172.529225 
L 241.180097 171.928492 
L 243.347087 171.65123 
L 245.514078 171.142917 
L 249.848058 170.311132 
L 260.68301 168.13925 
L 262.85 167.954409 
L 265.01699 167.215044 
L 267.183981 166.983993 
L 273.684951 165.690105 
L 275.851942 165.274213 
L 278.018932 165.366634 
L 280.185922 165.135582 
L 282.352913 165.366634 
L 286.686893 165.181792 
L 288.853883 165.366634 
L 295.354854 165.181792 
L 297.521845 165.366634 
L 299.688835 164.396218 
L 301.855825 163.656854 
L 306.189806 162.547807 
L 308.356796 161.531181 
L 310.523786 161.069079 
L 312.690777 160.144873 
L 314.857767 159.63656 
L 317.024757 158.804775 
L 319.191748 158.342673 
L 321.358738 157.279836 
L 323.525728 156.817734 
L 327.859709 155.385215 
L 330.026699 154.46101 
L 332.193689 154.091328 
L 336.52767 152.520179 
L 338.69466 151.595973 
L 340.86165 151.503553 
L 343.028641 151.133871 
L 347.362621 151.318712 
L 351.696602 151.180081 
L 360.364563 151.272502 
L 362.531553 151.04145 
L 364.698544 149.932404 
L 366.865534 149.100619 
L 373.366505 145.77348 
L 375.533495 144.941695 
L 377.700485 143.740228 
L 379.867476 142.723602 
L 382.034466 141.475925 
L 384.201456 140.828981 
L 386.368447 139.488883 
L 388.535437 138.888149 
L 390.702427 137.178369 
L 392.869417 136.439005 
L 395.036408 135.46859 
L 397.203398 134.359543 
L 399.370388 133.712599 
L 401.537379 131.633137 
L 403.704369 131.448296 
L 405.871359 130.33925 
L 408.03835 130.154409 
L 410.20534 130.477881 
L 414.53932 130.108198 
L 416.706311 130.616511 
L 418.873301 130.154409 
L 421.040291 130.246829 
L 423.207282 130.524091 
L 425.374272 130.154409 
L 427.541262 129.969568 
L 429.708252 128.768101 
L 431.875243 126.87348 
L 434.042233 126.041695 
L 436.209223 124.239494 
L 438.376214 122.945607 
L 440.543204 121.420668 
L 442.710194 119.387416 
L 444.877184 118.417 
L 449.211165 115.783015 
L 451.378155 114.258076 
L 453.545146 112.317245 
L 457.879126 109.914311 
L 460.046117 109.036316 
L 462.213107 106.217489 
L 464.380097 105.108443 
L 466.547087 103.629714 
L 468.714078 102.797929 
L 470.881068 100.995729 
L 473.048058 101.504042 
L 475.215049 100.857098 
L 477.382039 100.718467 
L 479.549029 101.365411 
L 481.716019 101.411621 
L 483.88301 100.903308 
L 488.21699 101.457832 
L 490.383981 100.394995 
L 492.550971 100.995729 
L 496.884951 97.021646 
L 499.051942 95.265656 
L 501.218932 92.908932 
L 503.385922 91.337783 
L 505.552913 88.981059 
L 507.719903 89.258321 
L 509.886893 83.851719 
L 512.053883 83.897929 
L 514.220874 82.372991 
L 516.387864 78.121646 
L 518.554854 77.567123 
L 520.721845 75.764922 
L 522.888835 73.454409 
L 529.389806 68.4637 
L 531.556796 64.997929 
L 533.723786 64.212355 
L 535.890777 64.350986 
L 538.057767 60.607954 
L 540.224757 62.086682 
L 542.391748 62.502575 
L 544.558738 61.948052 
L 546.725728 62.179103 
L 548.892718 62.086682 
L 551.059709 62.826047 
L 553.226699 62.225313 
L 555.393689 62.132893 
L 557.56068 61.67079 
L 559.72767 61.717 
L 561.89466 57.003553 
L 564.06165 54.693039 
L 566.228641 51.31969 
L 568.395631 50.303064 
L 570.562621 46.929714 
L 572.729612 43.972257 
L 574.896602 42.170057 
L 577.063592 39.674702 
L 579.230583 36.763455 
L 581.397573 34.22189 
L 583.564563 32.234849 
L 585.731553 29.878125 
L 590.065534 37.964922 
L 592.232524 72.576414 
L 594.399515 84.960766 
L 596.566505 57.095973 
L 598.733495 42.678369 
L 600.900485 39.39744 
L 603.067476 74.840717 
L 605.234466 71.97568 
L 607.401456 50.672746 
L 609.568447 41.476903 
L 611.735437 65.783504 
L 613.902427 55.755876 
L 616.069417 50.441695 
L 618.236408 54.369568 
L 620.403398 36.393773 
L 622.570388 37.502819 
L 624.737379 49.147807 
L 626.904369 34.961255 
L 629.071359 32.743162 
L 631.23835 40.645118 
L 633.40534 42.216267 
L 635.57233 41.245851 
L 637.73932 36.855876 
L 639.906311 55.478614 
L 642.073301 43.926047 
L 644.240291 47.669079 
L 646.407282 58.20502 
L 648.574272 49.517489 
L 650.741262 36.902086 
L 652.908252 45.219934 
L 655.075243 60.00722 
L 657.242233 56.864922 
L 659.409223 44.388149 
L 661.576214 70.959054 
L 663.743204 50.395484 
L 665.910194 62.918467 
L 668.077184 114.211866 
L 670.244175 120.866145 
L 672.411165 154.229959 
L 674.578155 108.897685 
L 676.745146 110.653675 
L 678.912136 138.93436 
L 681.079126 97.483748 
L 683.246117 122.391083 
L 685.413107 145.542428 
L 687.580097 115.274702 
L 689.747087 130.38546 
L 691.914078 142.954653 
L 694.081068 107.557587 
L 696.248058 145.8659 
L 698.415049 133.204286 
L 700.582039 104.69255 
L 702.749029 142.816022 
L 704.916019 128.398418 
L 707.08301 100.810888 
L 709.25 178.767612 
L 709.25 178.767612 
" clip-path="url(#pfcf8138b23)" style="fill: none; stroke: #9467bd; stroke-width: 1.5; stroke-linecap: square"/>
   </g>
   <g id="patch_3">
    <path d="M 39.65 188.638125 
L 39.65 22.318125 
" style="fill: none; stroke: #000000; stroke-width: 0.8; stroke-linejoin: miter; stroke-linecap: square"/>
   </g>
   <g id="patch_4">
    <path d="M 709.25 188.638125 
L 709.25 22.318125 
" style="fill: none; stroke: #000000; stroke-width: 0.8; stroke-linejoin: miter; stroke-linecap: square"/>
   </g>
   <g id="patch_5">
    <path d="M 39.65 188.638125 
L 709.25 188.638125 
" style="fill: none; stroke: #000000; stroke-width: 0.8; stroke-linejoin: miter; stroke-linecap: square"/>
   </g>
   <g id="patch_6">
    <path d="M 39.65 22.318125 
L 709.25 22.318125 
" style="fill: none; stroke: #000000; stroke-width: 0.8; stroke-linejoin: miter; stroke-linecap: square"/>
   </g>
   <g id="text_16">
    <!-- Requests per second -->
    <g transform="translate(311.771563 16.318125) scale(0.12 -0.12)">
     <defs>
      <path id="DejaVuSans-52" d="M 2841 2188 
Q 3044 2119 3236 1894 
Q 3428 1669 3622 1275 
L 4263 0 
L 3584 0 
L 2988 1197 
Q 2756 1666 2539 1819 
Q 2322 1972 1947 1972 
L 1259 1972 
L 1259 0 
L 628 0 
L 628 4666 
L 2053 4666 
Q 2853 4666 3247 4331 
Q 3641 3997 3641 3322 
Q 3641 2881 3436 2590 
Q 3231 2300 2841 2188 
z
M 1259 4147 
L 1259 2491 
L 2053 2491 
Q 2509 2491 2742 2702 
Q 2975 2913 2975 3322 
Q 2975 3731 2742 3939 
Q 2509 4147 2053 4147 
L 1259 4147 
z
" transform="scale(0.015625)"/>
      <path id="DejaVuSans-71" d="M 947 1747 
Q 947 1113 1208 752 
Q 1469 391 1925 391 
Q 2381 391 2643 752 
Q 2906 1113 2906 1747 
Q 2906 2381 2643 2742 
Q 2381 3103 1925 3103 
Q 1469 3103 1208 2742 
Q 947 2381 947 1747 
z
M 2906 525 
Q 2725 213 2448 61 
Q 2172 -91 1784 -91 
Q 1150 -91 751 415 
Q 353 922 353 1747 
Q 353 2572 751 3078 
Q 1150 3584 1784 3584 
Q 2172 3584 2448 3432 
Q 2725 3281 2906 2969 
L 2906 3500 
L 3481 3500 
L 3481 -1331 
L 2906 -1331 
L 2906 525 
z
" transform="scale(0.015625)"/>
      <path id="DejaVuSans-75" d="M 544 1381 
L 544 3500 
L 1119 3500 
L 1119 1403 
Q 1119 906 1312 657 
Q 1506 409 1894 409 
Q 2359 409 2629 706 
Q 2900 1003 2900 1516 
L 2900 3500 
L 3475 3500 
L 3475 0 
L 2900 0 
L 2900 538 
Q 2691 219 2414 64 
Q 2138 -91 1772 -91 
Q 1169 -91 856 284 
Q 544 659 544 1381 
z
M 1991 3584 
L 1991 3584 
z
" transform="scale(0.015625)"/>
      <path id="DejaVuSans-73" d="M 2834 3397 
L 2834 2853 
Q 2591 2978 2328 3040 
Q 2066 3103 1784 3103 
Q 1356 3103 1142 2972 
Q 928 2841 928 2578 
Q 928 2378 1081 2264 
Q 1234 2150 1697 2047 
L 1894 2003 
Q 2506 1872 2764 1633 
Q 3022 1394 3022 966 
Q 3022 478 2636 193 
Q 2250 -91 1575 -91 
Q 1294 -91 989 -36 
Q 684 19 347 128 
L 347 722 
Q 666 556 975 473 
Q 1284 391 1588 391 
Q 1994 391 2212 530 
Q 2431 669 2431 922 
Q 2431 1156 2273 1281 
Q 2116 1406 1581 1522 
L 1381 1569 
Q 847 1681 609 1914 
Q 372 2147 372 2553 
Q 372 3047 722 3315 
Q 1072 3584 1716 3584 
Q 2034 3584 2315 3537 
Q 2597 3491 2834 3397 
z
" transform="scale(0.015625)"/>
      <path id="DejaVuSans-74" d="M 1172 4494 
L 1172 3500 
L 2356 3500 
L 2356 3053 
L 1172 3053 
L 1172 1153 
Q 1172 725 1289 603 
Q 1406 481 1766 481 
L 2356 481 
L 2356 0 
L 1766 0 
Q 1100 0 847 248 
Q 594 497 594 1153 
L 594 3053 
L 172 3053 
L 172 3500 
L 594 3500 
L 594 4494 
L 1172 4494 
z
" transform="scale(0.015625)"/>
      <path id="DejaVuSans-20" transform="scale(0.015625)"/>
      <path id="DejaVuSans-70" d="M 1159 525 
L 1159 -1331 
L 581 -1331 
L 581 3500 
L 1159 3500 
L 1159 2969 
Q 1341 3281 1617 3432 
Q 1894 3584 2278 3584 
Q 2916 3584 3314 3078 
Q 3713 2572 3713 1747 
Q 3713 922 3314 415 
Q 2916 -91 2278 -91 
Q 1894 -91 1617 61 
Q 1341 213 1159 525 
z
M 3116 1747 
Q 3116 2381 2855 2742 
Q 2594 3103 2138 3103 
Q 1681 3103 1420 2742 
Q 1159 2381 1159 1747 
Q 1159 1113 1420 752 
Q 1681 391 2138 391 
Q 2594 391 2855 752 
Q 3116 1113 3116 1747 
z
" transform="scale(0.015625)"/>
      <path id="DejaVuSans-72" d="M 2631 2963 
Q 2534 3019 2420 3045 
Q 2306 3072 2169 3072 
Q 1681 3072 1420 2755 
Q 1159 2438 1159 1844 
L 1159 0 
L 581 0 
L 581 3500 
L 1159 3500 
L 1159 2956 
Q 1341 3275 1631 3429 
Q 1922 3584 2338 3584 
Q 2397 3584 2469 3576 
Q 2541 3569 2628 3553 
L 2631 2963 
z
" transform="scale(0.015625)"/>
      <path id="DejaVuSans-63" d="M 3122 3366 
L 3122 2828 
Q 2878 2963 2633 3030 
Q 2388 3097 2138 3097 
Q 1578 3097 1268 2742 
Q 959 2388 959 1747 
Q 959 1106 1268 751 
Q 1578 397 2138 397 
Q 2388 397 2633 464 
Q 2878 531 3122 666 
L 3122 134 
Q 2881 22 2623 -34 
Q 2366 -91 2075 -91 
Q 1284 -91 818 406 
Q 353 903 353 1747 
Q 353 2603 823 3093 
Q 1294 3584 2113 3584 
Q 2378 3584 2631 3529 
Q 2884 3475 3122 3366 
z
" transform="scale(0.015625)"/>
      <path id="DejaVuSans-6f" d="M 1959 3097 
Q 1497 3097 1228 2736 
Q 959 2375 959 1747 
Q 959 1119 1226 758 
Q 1494 397 1959 397 
Q 2419 397 2687 759 
Q 2956 1122 2956 1747 
Q 2956 2369 2687 2733 
Q 2419 3097 1959 3097 
z
M 1959 3584 
Q 2709 3584 3137 3096 
Q 3566 2609 3566 1747 
Q 3566 888 3137 398 
Q 2709 -91 1959 -91 
Q 1206 -91 779 398 
Q 353 888 353 1747 
Q 353 2609 779 3096 
Q 1206 3584 1959 3584 
z
" transform="scale(0.015625)"/>
      <path id="DejaVuSans-6e" d="M 3513 2113 
L 3513 0 
L 2938 0 
L 2938 2094 
Q 2938 2591 2744 2837 
Q 2550 3084 2163 3084 
Q 1697 3084 1428 2787 
Q 1159 2491 1159 1978 
L 1159 0 
L 581 0 
L 581 3500 
L 1159 3500 
L 1159 2956 
Q 1366 3272 1645 3428 
Q 1925 3584 2291 3584 
Q 2894 3584 3203 3211 
Q 3513 2838 3513 2113 
z
" transform="scale(0.015625)"/>
      <path id="DejaVuSans-64" d="M 2906 2969 
L 2906 4863 
L 3481 4863 
L 3481 0 
L 2906 0 
L 2906 525 
Q 2725 213 2448 61 
Q 2172 -91 1784 -91 
Q 1150 -91 751 415 
Q 353 922 353 1747 
Q 353 2572 751 3078 
Q 1150 3584 1784 3584 
Q 2172 3584 2448 3432 
Q 2725 3281 2906 2969 
z
M 947 1747 
Q 947 1113 1208 752 
Q 1469 391 1925 391 
Q 2381 391 2643 752 
Q 2906 1113 2906 1747 
Q 2906 2381 2643 2742 
Q 2381 3103 1925 3103 
Q 1469 3103 1208 2742 
Q 947 2381 947 1747 
z
" transform="scale(0.015625)"/>
     </defs>
     <use xlink:href="#DejaVuSans-52"/>
     <use xlink:href="#DejaVuSans-65" x="64.982422"/>
     <use xlink:href="#DejaVuSans-71" x="126.505859"/>
     <use xlink:href="#DejaVuSans-75" x="189.982422"/>
     <use xlink:href="#DejaVuSans-65" x="253.361328"/>
     <use xlink:href="#DejaVuSans-73" x="314.884766"/>
     <use xlink:href="#DejaVuSans-74" x="366.984375"/>
     <use xlink:href="#DejaVuSans-73" x="406.193359"/>
     <use xlink:href="#DejaVuSans-20" x="458.292969"/>
     <use xlink:href="#DejaVuSans-70" x="490.080078"/>
     <use xlink:href="#DejaVuSans-65" x="553.556641"/>
     <use xlink:href="#DejaVuSans-72" x="615.080078"/>
     <use xlink:href="#DejaVuSans-20" x="656.193359"/>
     <use xlink:href="#DejaVuSans-73" x="687.980469"/>
     <use xlink:href="#DejaVuSans-65" x="740.080078"/>
     <use xlink:href="#DejaVuSans-63" x="801.603516"/>
     <use xlink:href="#DejaVuSans-6f" x="856.583984"/>
     <use xlink:href="#DejaVuSans-6e" x="917.765625"/>
     <use xlink:href="#DejaVuSans-64" x="981.144531"/>
    </g>
   </g>
   <g id="legend_1">
    <g id="patch_7">
     <path d="M 46.65 103.70875 
L 113.63125 103.70875 
Q 115.63125 103.70875 115.63125 101.70875 
L 115.63125 29.318125 
Q 115.63125 27.318125 113.63125 27.318125 
L 46.65 27.318125 
Q 44.65 27.318125 44.65 29.318125 
L 44.65 101.70875 
Q 44.65 103.70875 46.65 103.70875 
z
" style="fill: #ffffff; opacity: 0.8; stroke: #cccccc; stroke-linejoin: miter"/>
    </g>
    <g id="line2d_20">
     <path d="M 48.65 35.416562 
L 58.65 35.416562 
L 68.65 35.416562 
" style="fill: none; stroke: #1f77b4; stroke-width: 1.5; stroke-linecap: square"/>
    </g>
    <g id="text_17">
     <!-- php -->
     <g transform="translate(76.65 38.916562) scale(0.1 -0.1)">
      <defs>
       <path id="DejaVuSans-68" d="M 3513 2113 
L 3513 0 
L 2938 0 
L 2938 2094 
Q 2938 2591 2744 2837 
Q 2550 3084 2163 3084 
Q 1697 3084 1428 2787 
Q 1159 2491 1159 1978 
L 1159 0 
L 581 0 
L 581 4863 
L 1159 4863 
L 1159 2956 
Q 1366 3272 1645 3428 
Q 1925 3584 2291 3584 
Q 2894 3584 3203 3211 
Q 3513 2838 3513 2113 
z
" transform="scale(0.015625)"/>
      </defs>
      <use xlink:href="#DejaVuSans-70"/>
      <use xlink:href="#DejaVuSans-68" x="63.476562"/>
      <use xlink:href="#DejaVuSans-70" x="126.855469"/>
     </g>
    </g>
    <g id="line2d_21">
     <path d="M 48.65 50.094687 
L 58.65 50.094687 
L 68.65 50.094687 
" style="fill: none; stroke: #ff7f0e; stroke-width: 1.5; stroke-linecap: square"/>
    </g>
    <g id="text_18">
     <!-- python -->
     <g transform="translate(76.65 53.594687) scale(0.1 -0.1)">
      <defs>
       <path id="DejaVuSans-79" d="M 2059 -325 
Q 1816 -950 1584 -1140 
Q 1353 -1331 966 -1331 
L 506 -1331 
L 506 -850 
L 844 -850 
Q 1081 -850 1212 -737 
Q 1344 -625 1503 -206 
L 1606 56 
L 191 3500 
L 800 3500 
L 1894 763 
L 2988 3500 
L 3597 3500 
L 2059 -325 
z
" transform="scale(0.015625)"/>
      </defs>
      <use xlink:href="#DejaVuSans-70"/>
      <use xlink:href="#DejaVuSans-79" x="63.476562"/>
      <use xlink:href="#DejaVuSans-74" x="122.65625"/>
      <use xlink:href="#DejaVuSans-68" x="161.865234"/>
      <use xlink:href="#DejaVuSans-6f" x="225.244141"/>
      <use xlink:href="#DejaVuSans-6e" x="286.425781"/>
     </g>
    </g>
    <g id="line2d_22">
     <path d="M 48.65 64.772812 
L 58.65 64.772812 
L 68.65 64.772812 
" style="fill: none; stroke: #2ca02c; stroke-width: 1.5; stroke-linecap: square"/>
    </g>
    <g id="text_19">
     <!-- dotnet -->
     <g transform="translate(76.65 68.272812) scale(0.1 -0.1)">
      <use xlink:href="#DejaVuSans-64"/>
      <use xlink:href="#DejaVuSans-6f" x="63.476562"/>
      <use xlink:href="#DejaVuSans-74" x="124.658203"/>
      <use xlink:href="#DejaVuSans-6e" x="163.867188"/>
      <use xlink:href="#DejaVuSans-65" x="227.246094"/>
      <use xlink:href="#DejaVuSans-74" x="288.769531"/>
     </g>
    </g>
    <g id="line2d_23">
     <path d="M 48.65 79.450938 
L 58.65 79.450938 
L 68.65 79.450938 
" style="fill: none; stroke: #d62728; stroke-width: 1.5; stroke-linecap: square"/>
    </g>
    <g id="text_20">
     <!-- go -->
     <g transform="translate(76.65 82.950938) scale(0.1 -0.1)">
      <defs>
       <path id="DejaVuSans-67" d="M 2906 1791 
Q 2906 2416 2648 2759 
Q 2391 3103 1925 3103 
Q 1463 3103 1205 2759 
Q 947 2416 947 1791 
Q 947 1169 1205 825 
Q 1463 481 1925 481 
Q 2391 481 2648 825 
Q 2906 1169 2906 1791 
z
M 3481 434 
Q 3481 -459 3084 -895 
Q 2688 -1331 1869 -1331 
Q 1566 -1331 1297 -1286 
Q 1028 -1241 775 -1147 
L 775 -588 
Q 1028 -725 1275 -790 
Q 1522 -856 1778 -856 
Q 2344 -856 2625 -561 
Q 2906 -266 2906 331 
L 2906 616 
Q 2728 306 2450 153 
Q 2172 0 1784 0 
Q 1141 0 747 490 
Q 353 981 353 1791 
Q 353 2603 747 3093 
Q 1141 3584 1784 3584 
Q 2172 3584 2450 3431 
Q 2728 3278 2906 2969 
L 2906 3500 
L 3481 3500 
L 3481 434 
z
" transform="scale(0.015625)"/>
      </defs>
      <use xlink:href="#DejaVuSans-67"/>
      <use xlink:href="#DejaVuSans-6f" x="63.476562"/>
     </g>
    </g>
    <g id="line2d_24">
     <path d="M 48.65 94.129063 
L 58.65 94.129063 
L 68.65 94.129063 
" style="fill: none; stroke: #9467bd; stroke-width: 1.5; stroke-linecap: square"/>
    </g>
    <g id="text_21">
     <!-- rust -->
     <g transform="translate(76.65 97.629063) scale(0.1 -0.1)">
      <use xlink:href="#DejaVuSans-72"/>
      <use xlink:href="#DejaVuSans-75" x="41.113281"/>
      <use xlink:href="#DejaVuSans-73" x="104.492188"/>
      <use xlink:href="#DejaVuSans-74" x="156.591797"/>
     </g>
    </g>
   </g>
  </g>
 </g>
 <defs>
  <clipPath id="pfcf8138b23">
   <rect x="39.65" y="22.318125" width="669.6" height="166.32"/>
  </clipPath>
 </defs>
</svg>
