<?xml version="1.0" encoding="utf-8" standalone="no"?>
<!DOCTYPE svg PUBLIC "-//W3C//DTD SVG 1.1//EN"
  "http://www.w3.org/Graphics/SVG/1.1/DTD/svg11.dtd">
<svg xmlns:xlink="http://www.w3.org/1999/xlink" width="716.45pt" height="226.194375pt" viewBox="0 0 716.45 226.194375" xmlns="http://www.w3.org/2000/svg" version="1.1">
 <metadata>
  <rdf:RDF xmlns:dc="http://purl.org/dc/elements/1.1/" xmlns:cc="http://creativecommons.org/ns#" xmlns:rdf="http://www.w3.org/1999/02/22-rdf-syntax-ns#">
   <cc:Work>
    <dc:type rdf:resource="http://purl.org/dc/dcmitype/StillImage"/>
    <dc:date>2023-08-20T18:07:26.480561</dc:date>
    <dc:format>image/svg+xml</dc:format>
    <dc:creator>
     <cc:Agent>
      <dc:title>Matplotlib v3.7.2, https://matplotlib.org/</dc:title>
     </cc:Agent>
    </dc:creator>
   </cc:Work>
  </rdf:RDF>
 </metadata>
 <defs>
  <style type="text/css">*{stroke-linejoin: round; stroke-linecap: butt}</style>
 </defs>
 <g id="figure_1">
  <g id="patch_1">
   <path d="M 0 226.194375 
L 716.45 226.194375 
L 716.45 0 
L 0 0 
z
" style="fill: #ffffff"/>
  </g>
  <g id="axes_1">
   <g id="patch_2">
    <path d="M 39.65 188.638125 
L 709.25 188.638125 
L 709.25 22.318125 
L 39.65 22.318125 
z
" style="fill: #ffffff"/>
   </g>
   <g id="matplotlib.axis_1">
    <g id="xtick_1">
     <g id="line2d_1">
      <defs>
       <path id="m60050e1af9" d="M 0 0 
L 0 3.5 
" style="stroke: #000000; stroke-width: 0.8"/>
      </defs>
      <g>
       <use xlink:href="#m60050e1af9" x="39.65" y="188.638125" style="stroke: #000000; stroke-width: 0.8"/>
      </g>
     </g>
     <g id="text_1">
      <!-- 00:00:00 -->
      <g transform="translate(17.19375 203.236563) scale(0.1 -0.1)">
       <defs>
        <path id="DejaVuSans-30" d="M 2034 4250 
Q 1547 4250 1301 3770 
Q 1056 3291 1056 2328 
Q 1056 1369 1301 889 
Q 1547 409 2034 409 
Q 2525 409 2770 889 
Q 3016 1369 3016 2328 
Q 3016 3291 2770 3770 
Q 2525 4250 2034 4250 
z
M 2034 4750 
Q 2819 4750 3233 4129 
Q 3647 3509 3647 2328 
Q 3647 1150 3233 529 
Q 2819 -91 2034 -91 
Q 1250 -91 836 529 
Q 422 1150 422 2328 
Q 422 3509 836 4129 
Q 1250 4750 2034 4750 
z
" transform="scale(0.015625)"/>
        <path id="DejaVuSans-3a" d="M 750 794 
L 1409 794 
L 1409 0 
L 750 0 
L 750 794 
z
M 750 3309 
L 1409 3309 
L 1409 2516 
L 750 2516 
L 750 3309 
z
" transform="scale(0.015625)"/>
       </defs>
       <use xlink:href="#DejaVuSans-30"/>
       <use xlink:href="#DejaVuSans-30" x="63.623047"/>
       <use xlink:href="#DejaVuSans-3a" x="127.246094"/>
       <use xlink:href="#DejaVuSans-30" x="160.9375"/>
       <use xlink:href="#DejaVuSans-30" x="224.560547"/>
       <use xlink:href="#DejaVuSans-3a" x="288.183594"/>
       <use xlink:href="#DejaVuSans-30" x="321.875"/>
       <use xlink:href="#DejaVuSans-30" x="385.498047"/>
      </g>
     </g>
    </g>
    <g id="xtick_2">
     <g id="line2d_2">
      <g>
       <use xlink:href="#m60050e1af9" x="160.954348" y="188.638125" style="stroke: #000000; stroke-width: 0.8"/>
      </g>
     </g>
     <g id="text_2">
      <!-- 00:00:50 -->
      <g transform="translate(138.498098 203.236563) scale(0.1 -0.1)">
       <defs>
        <path id="DejaVuSans-35" d="M 691 4666 
L 3169 4666 
L 3169 4134 
L 1269 4134 
L 1269 2991 
Q 1406 3038 1543 3061 
Q 1681 3084 1819 3084 
Q 2600 3084 3056 2656 
Q 3513 2228 3513 1497 
Q 3513 744 3044 326 
Q 2575 -91 1722 -91 
Q 1428 -91 1123 -41 
Q 819 9 494 109 
L 494 744 
Q 775 591 1075 516 
Q 1375 441 1709 441 
Q 2250 441 2565 725 
Q 2881 1009 2881 1497 
Q 2881 1984 2565 2268 
Q 2250 2553 1709 2553 
Q 1456 2553 1204 2497 
Q 953 2441 691 2322 
L 691 4666 
z
" transform="scale(0.015625)"/>
       </defs>
       <use xlink:href="#DejaVuSans-30"/>
       <use xlink:href="#DejaVuSans-30" x="63.623047"/>
       <use xlink:href="#DejaVuSans-3a" x="127.246094"/>
       <use xlink:href="#DejaVuSans-30" x="160.9375"/>
       <use xlink:href="#DejaVuSans-30" x="224.560547"/>
       <use xlink:href="#DejaVuSans-3a" x="288.183594"/>
       <use xlink:href="#DejaVuSans-35" x="321.875"/>
       <use xlink:href="#DejaVuSans-30" x="385.498047"/>
      </g>
     </g>
    </g>
    <g id="xtick_3">
     <g id="line2d_3">
      <g>
       <use xlink:href="#m60050e1af9" x="282.258696" y="188.638125" style="stroke: #000000; stroke-width: 0.8"/>
      </g>
     </g>
     <g id="text_3">
      <!-- 00:01:40 -->
      <g transform="translate(259.802446 203.236563) scale(0.1 -0.1)">
       <defs>
        <path id="DejaVuSans-31" d="M 794 531 
L 1825 531 
L 1825 4091 
L 703 3866 
L 703 4441 
L 1819 4666 
L 2450 4666 
L 2450 531 
L 3481 531 
L 3481 0 
L 794 0 
L 794 531 
z
" transform="scale(0.015625)"/>
        <path id="DejaVuSans-34" d="M 2419 4116 
L 825 1625 
L 2419 1625 
L 2419 4116 
z
M 2253 4666 
L 3047 4666 
L 3047 1625 
L 3713 1625 
L 3713 1100 
L 3047 1100 
L 3047 0 
L 2419 0 
L 2419 1100 
L 313 1100 
L 313 1709 
L 2253 4666 
z
" transform="scale(0.015625)"/>
       </defs>
       <use xlink:href="#DejaVuSans-30"/>
       <use xlink:href="#DejaVuSans-30" x="63.623047"/>
       <use xlink:href="#DejaVuSans-3a" x="127.246094"/>
       <use xlink:href="#DejaVuSans-30" x="160.9375"/>
       <use xlink:href="#DejaVuSans-31" x="224.560547"/>
       <use xlink:href="#DejaVuSans-3a" x="288.183594"/>
       <use xlink:href="#DejaVuSans-34" x="321.875"/>
       <use xlink:href="#DejaVuSans-30" x="385.498047"/>
      </g>
     </g>
    </g>
    <g id="xtick_4">
     <g id="line2d_4">
      <g>
       <use xlink:href="#m60050e1af9" x="403.563043" y="188.638125" style="stroke: #000000; stroke-width: 0.8"/>
      </g>
     </g>
     <g id="text_4">
      <!-- 00:02:30 -->
      <g transform="translate(381.106793 203.236563) scale(0.1 -0.1)">
       <defs>
        <path id="DejaVuSans-32" d="M 1228 531 
L 3431 531 
L 3431 0 
L 469 0 
L 469 531 
Q 828 903 1448 1529 
Q 2069 2156 2228 2338 
Q 2531 2678 2651 2914 
Q 2772 3150 2772 3378 
Q 2772 3750 2511 3984 
Q 2250 4219 1831 4219 
Q 1534 4219 1204 4116 
Q 875 4013 500 3803 
L 500 4441 
Q 881 4594 1212 4672 
Q 1544 4750 1819 4750 
Q 2544 4750 2975 4387 
Q 3406 4025 3406 3419 
Q 3406 3131 3298 2873 
Q 3191 2616 2906 2266 
Q 2828 2175 2409 1742 
Q 1991 1309 1228 531 
z
" transform="scale(0.015625)"/>
        <path id="DejaVuSans-33" d="M 2597 2516 
Q 3050 2419 3304 2112 
Q 3559 1806 3559 1356 
Q 3559 666 3084 287 
Q 2609 -91 1734 -91 
Q 1441 -91 1130 -33 
Q 819 25 488 141 
L 488 750 
Q 750 597 1062 519 
Q 1375 441 1716 441 
Q 2309 441 2620 675 
Q 2931 909 2931 1356 
Q 2931 1769 2642 2001 
Q 2353 2234 1838 2234 
L 1294 2234 
L 1294 2753 
L 1863 2753 
Q 2328 2753 2575 2939 
Q 2822 3125 2822 3475 
Q 2822 3834 2567 4026 
Q 2313 4219 1838 4219 
Q 1578 4219 1281 4162 
Q 984 4106 628 3988 
L 628 4550 
Q 988 4650 1302 4700 
Q 1616 4750 1894 4750 
Q 2613 4750 3031 4423 
Q 3450 4097 3450 3541 
Q 3450 3153 3228 2886 
Q 3006 2619 2597 2516 
z
" transform="scale(0.015625)"/>
       </defs>
       <use xlink:href="#DejaVuSans-30"/>
       <use xlink:href="#DejaVuSans-30" x="63.623047"/>
       <use xlink:href="#DejaVuSans-3a" x="127.246094"/>
       <use xlink:href="#DejaVuSans-30" x="160.9375"/>
       <use xlink:href="#DejaVuSans-32" x="224.560547"/>
       <use xlink:href="#DejaVuSans-3a" x="288.183594"/>
       <use xlink:href="#DejaVuSans-33" x="321.875"/>
       <use xlink:href="#DejaVuSans-30" x="385.498047"/>
      </g>
     </g>
    </g>
    <g id="xtick_5">
     <g id="line2d_5">
      <g>
       <use xlink:href="#m60050e1af9" x="524.867391" y="188.638125" style="stroke: #000000; stroke-width: 0.8"/>
      </g>
     </g>
     <g id="text_5">
      <!-- 00:03:20 -->
      <g transform="translate(502.411141 203.236563) scale(0.1 -0.1)">
       <use xlink:href="#DejaVuSans-30"/>
       <use xlink:href="#DejaVuSans-30" x="63.623047"/>
       <use xlink:href="#DejaVuSans-3a" x="127.246094"/>
       <use xlink:href="#DejaVuSans-30" x="160.9375"/>
       <use xlink:href="#DejaVuSans-33" x="224.560547"/>
       <use xlink:href="#DejaVuSans-3a" x="288.183594"/>
       <use xlink:href="#DejaVuSans-32" x="321.875"/>
       <use xlink:href="#DejaVuSans-30" x="385.498047"/>
      </g>
     </g>
    </g>
    <g id="xtick_6">
     <g id="line2d_6">
      <g>
       <use xlink:href="#m60050e1af9" x="646.171739" y="188.638125" style="stroke: #000000; stroke-width: 0.8"/>
      </g>
     </g>
     <g id="text_6">
      <!-- 00:04:10 -->
      <g transform="translate(623.715489 203.236563) scale(0.1 -0.1)">
       <use xlink:href="#DejaVuSans-30"/>
       <use xlink:href="#DejaVuSans-30" x="63.623047"/>
       <use xlink:href="#DejaVuSans-3a" x="127.246094"/>
       <use xlink:href="#DejaVuSans-30" x="160.9375"/>
       <use xlink:href="#DejaVuSans-34" x="224.560547"/>
       <use xlink:href="#DejaVuSans-3a" x="288.183594"/>
       <use xlink:href="#DejaVuSans-31" x="321.875"/>
       <use xlink:href="#DejaVuSans-30" x="385.498047"/>
      </g>
     </g>
    </g>
    <g id="text_7">
     <!-- Time -->
     <g transform="translate(362.216406 216.914688) scale(0.1 -0.1)">
      <defs>
       <path id="DejaVuSans-54" d="M -19 4666 
L 3928 4666 
L 3928 4134 
L 2272 4134 
L 2272 0 
L 1638 0 
L 1638 4134 
L -19 4134 
L -19 4666 
z
" transform="scale(0.015625)"/>
       <path id="DejaVuSans-69" d="M 603 3500 
L 1178 3500 
L 1178 0 
L 603 0 
L 603 3500 
z
M 603 4863 
L 1178 4863 
L 1178 4134 
L 603 4134 
L 603 4863 
z
" transform="scale(0.015625)"/>
       <path id="DejaVuSans-6d" d="M 3328 2828 
Q 3544 3216 3844 3400 
Q 4144 3584 4550 3584 
Q 5097 3584 5394 3201 
Q 5691 2819 5691 2113 
L 5691 0 
L 5113 0 
L 5113 2094 
Q 5113 2597 4934 2840 
Q 4756 3084 4391 3084 
Q 3944 3084 3684 2787 
Q 3425 2491 3425 1978 
L 3425 0 
L 2847 0 
L 2847 2094 
Q 2847 2600 2669 2842 
Q 2491 3084 2119 3084 
Q 1678 3084 1418 2786 
Q 1159 2488 1159 1978 
L 1159 0 
L 581 0 
L 581 3500 
L 1159 3500 
L 1159 2956 
Q 1356 3278 1631 3431 
Q 1906 3584 2284 3584 
Q 2666 3584 2933 3390 
Q 3200 3197 3328 2828 
z
" transform="scale(0.015625)"/>
       <path id="DejaVuSans-65" d="M 3597 1894 
L 3597 1613 
L 953 1613 
Q 991 1019 1311 708 
Q 1631 397 2203 397 
Q 2534 397 2845 478 
Q 3156 559 3463 722 
L 3463 178 
Q 3153 47 2828 -22 
Q 2503 -91 2169 -91 
Q 1331 -91 842 396 
Q 353 884 353 1716 
Q 353 2575 817 3079 
Q 1281 3584 2069 3584 
Q 2775 3584 3186 3129 
Q 3597 2675 3597 1894 
z
M 3022 2063 
Q 3016 2534 2758 2815 
Q 2500 3097 2075 3097 
Q 1594 3097 1305 2825 
Q 1016 2553 972 2059 
L 3022 2063 
z
" transform="scale(0.015625)"/>
      </defs>
      <use xlink:href="#DejaVuSans-54"/>
      <use xlink:href="#DejaVuSans-69" x="57.958984"/>
      <use xlink:href="#DejaVuSans-6d" x="85.742188"/>
      <use xlink:href="#DejaVuSans-65" x="183.154297"/>
     </g>
    </g>
   </g>
   <g id="matplotlib.axis_2">
    <g id="ytick_1">
     <g id="line2d_7">
      <defs>
       <path id="mbb2d483f1f" d="M 0 0 
L -3.5 0 
" style="stroke: #000000; stroke-width: 0.8"/>
      </defs>
      <g>
       <use xlink:href="#mbb2d483f1f" x="39.65" y="181.120148" style="stroke: #000000; stroke-width: 0.8"/>
      </g>
     </g>
     <g id="text_8">
      <!-- 0 -->
      <g transform="translate(26.2875 184.919367) scale(0.1 -0.1)">
       <use xlink:href="#DejaVuSans-30"/>
      </g>
     </g>
    </g>
    <g id="ytick_2">
     <g id="line2d_8">
      <g>
       <use xlink:href="#mbb2d483f1f" x="39.65" y="160.108475" style="stroke: #000000; stroke-width: 0.8"/>
      </g>
     </g>
     <g id="text_9">
      <!-- 500 -->
      <g transform="translate(13.5625 163.907694) scale(0.1 -0.1)">
       <use xlink:href="#DejaVuSans-35"/>
       <use xlink:href="#DejaVuSans-30" x="63.623047"/>
       <use xlink:href="#DejaVuSans-30" x="127.246094"/>
      </g>
     </g>
    </g>
    <g id="ytick_3">
     <g id="line2d_9">
      <g>
       <use xlink:href="#mbb2d483f1f" x="39.65" y="139.096802" style="stroke: #000000; stroke-width: 0.8"/>
      </g>
     </g>
     <g id="text_10">
      <!-- 1000 -->
      <g transform="translate(7.2 142.896021) scale(0.1 -0.1)">
       <use xlink:href="#DejaVuSans-31"/>
       <use xlink:href="#DejaVuSans-30" x="63.623047"/>
       <use xlink:href="#DejaVuSans-30" x="127.246094"/>
       <use xlink:href="#DejaVuSans-30" x="190.869141"/>
      </g>
     </g>
    </g>
    <g id="ytick_4">
     <g id="line2d_10">
      <g>
       <use xlink:href="#mbb2d483f1f" x="39.65" y="118.085129" style="stroke: #000000; stroke-width: 0.8"/>
      </g>
     </g>
     <g id="text_11">
      <!-- 1500 -->
      <g transform="translate(7.2 121.884348) scale(0.1 -0.1)">
       <use xlink:href="#DejaVuSans-31"/>
       <use xlink:href="#DejaVuSans-35" x="63.623047"/>
       <use xlink:href="#DejaVuSans-30" x="127.246094"/>
       <use xlink:href="#DejaVuSans-30" x="190.869141"/>
      </g>
     </g>
    </g>
    <g id="ytick_5">
     <g id="line2d_11">
      <g>
       <use xlink:href="#mbb2d483f1f" x="39.65" y="97.073456" style="stroke: #000000; stroke-width: 0.8"/>
      </g>
     </g>
     <g id="text_12">
      <!-- 2000 -->
      <g transform="translate(7.2 100.872674) scale(0.1 -0.1)">
       <use xlink:href="#DejaVuSans-32"/>
       <use xlink:href="#DejaVuSans-30" x="63.623047"/>
       <use xlink:href="#DejaVuSans-30" x="127.246094"/>
       <use xlink:href="#DejaVuSans-30" x="190.869141"/>
      </g>
     </g>
    </g>
    <g id="ytick_6">
     <g id="line2d_12">
      <g>
       <use xlink:href="#mbb2d483f1f" x="39.65" y="76.061783" style="stroke: #000000; stroke-width: 0.8"/>
      </g>
     </g>
     <g id="text_13">
      <!-- 2500 -->
      <g transform="translate(7.2 79.861001) scale(0.1 -0.1)">
       <use xlink:href="#DejaVuSans-32"/>
       <use xlink:href="#DejaVuSans-35" x="63.623047"/>
       <use xlink:href="#DejaVuSans-30" x="127.246094"/>
       <use xlink:href="#DejaVuSans-30" x="190.869141"/>
      </g>
     </g>
    </g>
    <g id="ytick_7">
     <g id="line2d_13">
      <g>
       <use xlink:href="#mbb2d483f1f" x="39.65" y="55.050109" style="stroke: #000000; stroke-width: 0.8"/>
      </g>
     </g>
     <g id="text_14">
      <!-- 3000 -->
      <g transform="translate(7.2 58.849328) scale(0.1 -0.1)">
       <use xlink:href="#DejaVuSans-33"/>
       <use xlink:href="#DejaVuSans-30" x="63.623047"/>
       <use xlink:href="#DejaVuSans-30" x="127.246094"/>
       <use xlink:href="#DejaVuSans-30" x="190.869141"/>
      </g>
     </g>
    </g>
    <g id="ytick_8">
     <g id="line2d_14">
      <g>
       <use xlink:href="#mbb2d483f1f" x="39.65" y="34.038436" style="stroke: #000000; stroke-width: 0.8"/>
      </g>
     </g>
     <g id="text_15">
      <!-- 3500 -->
      <g transform="translate(7.2 37.837655) scale(0.1 -0.1)">
       <use xlink:href="#DejaVuSans-33"/>
       <use xlink:href="#DejaVuSans-35" x="63.623047"/>
       <use xlink:href="#DejaVuSans-30" x="127.246094"/>
       <use xlink:href="#DejaVuSans-30" x="190.869141"/>
      </g>
     </g>
    </g>
   </g>
   <g id="line2d_15">
    <path d="M 39.65 181.036102 
L 42.076087 180.994078 
L 44.502174 180.952055 
L 46.928261 180.825985 
L 49.354348 180.825985 
L 51.780435 180.699915 
L 54.206522 180.699915 
L 56.632609 180.573845 
L 59.058696 180.531821 
L 61.484783 180.489798 
L 63.91087 180.405751 
L 66.336957 180.363728 
L 68.763043 180.279681 
L 71.18913 180.237658 
L 73.615217 180.153611 
L 76.041304 180.111588 
L 78.467391 180.027541 
L 80.893478 179.985518 
L 83.319565 179.901471 
L 85.745652 179.859448 
L 88.171739 179.859448 
L 90.597826 179.859448 
L 93.023913 179.859448 
L 95.45 179.859448 
L 97.876087 179.859448 
L 100.302174 179.859448 
L 102.728261 179.859448 
L 105.154348 179.859448 
L 107.580435 179.859448 
L 110.006522 179.817425 
L 112.432609 179.775401 
L 114.858696 179.733378 
L 117.284783 179.607308 
L 119.71087 179.565285 
L 122.136957 179.481238 
L 124.563043 179.397191 
L 126.98913 179.313144 
L 129.415217 179.271121 
L 131.841304 179.187074 
L 134.267391 179.103028 
L 136.693478 179.018981 
L 139.119565 179.018981 
L 141.545652 178.850888 
L 143.971739 178.808864 
L 146.397826 178.766841 
L 148.823913 178.640771 
L 151.25 178.598748 
L 153.676087 178.556724 
L 156.102174 178.430654 
L 158.528261 178.388631 
L 160.954348 178.388631 
L 163.380435 178.388631 
L 165.806522 178.388631 
L 168.232609 178.388631 
L 170.658696 178.388631 
L 173.084783 178.388631 
L 175.51087 178.388631 
L 177.936957 178.388631 
L 180.363043 178.388631 
L 182.78913 178.388631 
L 185.215217 178.136491 
L 187.641304 177.926374 
L 190.067391 177.758281 
L 192.493478 177.548164 
L 194.919565 177.338047 
L 197.345652 177.254 
L 199.771739 176.959837 
L 202.197826 176.707697 
L 204.623913 176.581627 
L 207.05 176.455557 
L 209.476087 176.11937 
L 211.902174 175.9933 
L 214.328261 175.783183 
L 216.754348 175.573067 
L 219.180435 175.404973 
L 221.606522 175.152833 
L 224.032609 174.98474 
L 226.458696 174.85867 
L 228.884783 174.564506 
L 231.31087 174.48046 
L 233.736957 174.48046 
L 236.163043 174.35439 
L 238.58913 174.48046 
L 241.015217 174.35439 
L 243.441304 174.438436 
L 245.867391 174.48046 
L 248.293478 174.522483 
L 250.719565 174.396413 
L 253.145652 174.438436 
L 255.571739 174.396413 
L 257.997826 174.018203 
L 260.423913 173.639993 
L 262.85 173.555946 
L 265.276087 173.766063 
L 267.702174 174.060226 
L 270.128261 173.934156 
L 272.554348 174.270343 
L 274.980435 173.177736 
L 277.406522 173.429876 
L 279.832609 173.387853 
L 282.258696 174.270343 
L 284.684783 173.724039 
L 287.11087 173.808086 
L 289.536957 179.103028 
" clip-path="url(#p9a18c8b900)" style="fill: none; stroke: #1f77b4; stroke-width: 1.5; stroke-linecap: square"/>
   </g>
   <g id="line2d_16">
    <path d="M 39.65 181.078125 
L 49.354348 180.825985 
L 61.484783 180.489798 
L 73.615217 180.195635 
L 85.745652 179.859448 
L 112.432609 179.817425 
L 136.693478 179.061004 
L 143.971739 178.850888 
L 158.528261 178.430654 
L 165.806522 178.346607 
L 170.658696 178.430654 
L 173.084783 178.346607 
L 180.363043 178.388631 
L 182.78913 178.388631 
L 192.493478 177.674234 
L 197.345652 177.254 
L 211.902174 176.035323 
L 214.328261 175.909253 
L 219.180435 175.404973 
L 221.606522 175.320927 
L 228.884783 174.648553 
L 231.31087 174.438436 
L 255.571739 174.396413 
L 257.997826 174.144273 
L 260.423913 173.682016 
L 265.276087 173.009643 
L 267.702174 172.547386 
L 274.980435 171.454779 
L 279.832609 170.572288 
L 282.258696 170.320148 
L 284.684783 169.815868 
L 289.536957 169.143495 
L 294.38913 168.261004 
L 299.241304 167.588631 
L 301.667391 167.168397 
L 306.519565 166.622094 
L 318.65 166.748164 
L 321.076087 166.580071 
L 323.502174 166.748164 
L 328.354348 166.664117 
L 330.780435 166.20186 
L 335.632609 164.983183 
L 338.058696 164.100693 
L 340.484783 163.848553 
L 342.91087 162.839993 
L 347.763043 161.831432 
L 350.18913 160.948942 
L 352.615217 160.444662 
L 357.467391 159.183962 
L 359.893478 158.637658 
L 364.745652 157.082794 
L 369.597826 156.116257 
L 372.023913 155.27579 
L 374.45 154.64544 
L 379.302174 153.804973 
L 381.728261 153.973067 
L 384.154348 154.01509 
L 386.580435 153.846997 
L 389.006522 153.846997 
L 391.432609 154.057113 
L 393.858696 153.931043 
L 396.284783 153.973067 
L 398.71087 153.88902 
L 401.136957 154.01509 
L 403.563043 153.00653 
L 405.98913 152.208086 
L 408.415217 151.241549 
L 410.841304 150.148942 
L 413.267391 149.434545 
L 415.693478 148.552055 
L 418.119565 147.333378 
L 420.545652 146.829098 
L 422.971739 145.148164 
L 425.397826 144.72793 
L 427.823913 143.5933 
L 435.102174 140.945829 
L 437.528261 139.517036 
L 439.954348 139.012755 
L 442.380435 138.172288 
L 447.232609 135.734934 
L 449.658696 135.398748 
L 452.084783 134.600304 
L 454.51087 134.978514 
L 456.936957 135.230654 
L 459.363043 134.684351 
L 461.78913 134.642327 
L 464.215217 134.978514 
L 466.641304 134.810421 
L 469.067391 134.852444 
L 471.493478 135.104584 
L 473.919565 134.978514 
L 476.345652 133.42365 
L 481.197826 132.246997 
L 483.623913 128.675012 
L 486.05 128.969176 
L 488.476087 127.960615 
L 490.902174 126.783962 
L 493.328261 124.808864 
L 495.754348 124.094467 
L 498.180435 125.061004 
L 500.606522 129.431432 
L 503.032609 123.169954 
L 505.458696 123.842327 
L 507.884783 128.675012 
L 510.31087 123.043884 
L 512.736957 124.430654 
L 515.163043 129.221316 
L 517.58913 130.313923 
L 520.015217 125.145051 
L 522.441304 123.380071 
L 524.867391 129.179292 
L 527.293478 122.287464 
L 529.719565 129.809643 
L 532.145652 125.943495 
L 534.571739 115.857892 
L 536.997826 130.860226 
L 539.423913 117.454779 
L 541.85 118.925596 
L 544.276087 113.084351 
L 546.702174 122.959837 
L 549.128261 120.438436 
L 551.554348 139.601082 
L 553.980435 132.373067 
L 556.406522 150.485129 
L 558.832609 143.425207 
L 561.258696 138.172288 
L 563.684783 148.299915 
L 566.11087 166.958281 
L 566.11087 166.958281 
" clip-path="url(#p9a18c8b900)" style="fill: none; stroke: #ff7f0e; stroke-width: 1.5; stroke-linecap: square"/>
   </g>
   <g id="line2d_17">
    <path d="M 39.65 181.078125 
L 54.206522 180.657892 
L 56.632609 180.657892 
L 61.484783 180.489798 
L 73.615217 180.195635 
L 85.745652 179.859448 
L 88.171739 179.901471 
L 90.597826 179.817425 
L 97.876087 179.859448 
L 112.432609 179.775401 
L 122.136957 179.523261 
L 126.98913 179.355168 
L 146.397826 178.724818 
L 148.823913 178.724818 
L 156.102174 178.430654 
L 182.78913 178.388631 
L 197.345652 177.211977 
L 204.623913 176.665674 
L 209.476087 176.203417 
L 216.754348 175.699137 
L 219.180435 175.36295 
L 224.032609 175.11081 
L 226.458696 174.774623 
L 233.736957 174.396413 
L 241.015217 174.438436 
L 243.441304 174.396413 
L 245.867391 174.48046 
L 255.571739 174.396413 
L 257.997826 174.144273 
L 260.423913 173.639993 
L 294.38913 168.303028 
L 296.815217 167.840771 
L 301.667391 167.168397 
L 304.093478 166.664117 
L 306.519565 166.748164 
L 313.797826 166.706141 
L 316.223913 166.748164 
L 318.65 166.580071 
L 321.076087 166.790187 
L 323.502174 166.622094 
L 325.928261 166.790187 
L 328.354348 166.664117 
L 338.058696 164.226763 
L 340.484783 163.848553 
L 342.91087 162.671899 
L 347.763043 161.705362 
L 350.18913 160.864895 
L 352.615217 160.402639 
L 355.041304 159.688242 
L 362.319565 157.881238 
L 367.171739 156.452444 
L 372.023913 155.27579 
L 374.45 154.477347 
L 376.876087 154.01509 
L 381.728261 153.973067 
L 384.154348 154.01509 
L 386.580435 153.804973 
L 389.006522 154.099137 
L 391.432609 153.720927 
L 396.284783 154.099137 
L 398.71087 153.88902 
L 401.136957 153.846997 
L 403.563043 153.048553 
L 405.98913 152.039993 
L 408.415217 151.367619 
L 410.841304 149.854779 
L 415.693478 148.425985 
L 418.119565 147.417425 
L 420.545652 146.240771 
L 427.823913 143.635323 
L 430.25 142.500693 
L 432.676087 141.744273 
L 435.102174 140.525596 
L 437.528261 140.021316 
L 439.954348 138.634545 
L 442.380435 137.625985 
L 444.806522 136.995635 
L 447.232609 135.818981 
L 449.658696 135.398748 
L 452.084783 134.432211 
L 454.51087 134.936491 
L 456.936957 134.894467 
L 459.363043 135.062561 
L 461.78913 134.600304 
L 464.215217 135.146607 
L 466.641304 134.726374 
L 469.067391 135.020537 
L 471.493478 134.768397 
L 473.919565 134.810421 
L 476.345652 133.717814 
L 478.771739 132.28902 
L 481.197826 131.070343 
L 483.623913 129.389409 
L 486.05 129.095246 
L 488.476087 126.657892 
L 490.902174 125.649331 
L 493.328261 124.934934 
L 495.754348 122.413534 
L 498.180435 121.783183 
L 500.606522 120.438436 
L 503.032609 119.303806 
L 505.458696 117.538825 
L 507.884783 116.362172 
L 510.31087 115.395635 
L 512.736957 113.210421 
L 515.163043 112.580071 
L 520.015217 109.764506 
L 522.441304 109.176179 
L 524.867391 107.621316 
L 527.293478 108.419759 
L 529.719565 108.882016 
L 532.145652 107.999526 
L 534.571739 109.974623 
L 536.997826 108.293689 
L 539.423913 109.092133 
L 541.85 108.041549 
L 544.276087 108.461783 
L 546.702174 108.419759 
L 549.128261 108.545829 
L 551.554348 105.015868 
L 553.980435 102.116257 
L 556.406522 102.872678 
L 558.832609 98.334156 
L 561.258696 99.342716 
L 563.684783 94.510032 
L 566.11087 94.299915 
L 568.536957 95.182405 
L 570.963043 91.988631 
L 573.38913 87.576179 
L 575.815217 89.21509 
L 578.241304 89.46723 
L 580.667391 99.63688 
L 583.093478 99.426763 
L 585.519565 102.452444 
L 587.945652 106.990965 
L 590.371739 93.753611 
L 592.797826 102.284351 
L 595.223913 94.468008 
L 597.65 114.555168 
L 600.076087 98.796413 
L 602.502174 148.215868 
L 604.928261 107.621316 
L 607.354348 149.308475 
L 609.780435 164.773067 
L 612.206522 134.978514 
L 614.632609 136.155168 
L 617.058696 123.800304 
L 619.484783 144.980071 
L 621.91087 157.671121 
L 624.336957 119.682016 
L 624.336957 119.682016 
" clip-path="url(#p9a18c8b900)" style="fill: none; stroke: #2ca02c; stroke-width: 1.5; stroke-linecap: square"/>
   </g>
   <g id="line2d_18">
    <path d="M 39.65 181.078125 
L 49.354348 180.783962 
L 51.780435 180.783962 
L 56.632609 180.615868 
L 66.336957 180.363728 
L 76.041304 180.111588 
L 95.45 179.859448 
L 112.432609 179.775401 
L 119.71087 179.565285 
L 136.693478 179.061004 
L 141.545652 178.892911 
L 158.528261 178.388631 
L 182.78913 178.346607 
L 192.493478 177.632211 
L 194.919565 177.380071 
L 197.345652 177.254 
L 202.197826 176.791744 
L 209.476087 176.24544 
L 211.902174 175.9933 
L 214.328261 175.86723 
L 219.180435 175.404973 
L 221.606522 175.278903 
L 228.884783 174.60653 
L 231.31087 174.564506 
L 233.736957 174.396413 
L 236.163043 174.396413 
L 238.58913 174.522483 
L 241.015217 174.396413 
L 255.571739 174.438436 
L 260.423913 173.682016 
L 274.980435 171.412755 
L 277.406522 170.908475 
L 279.832609 170.656335 
L 282.258696 170.152055 
L 301.667391 167.084351 
L 306.519565 166.622094 
L 308.945652 166.664117 
L 311.371739 166.832211 
L 313.797826 166.622094 
L 321.076087 166.664117 
L 323.502174 166.622094 
L 325.928261 166.832211 
L 328.354348 166.622094 
L 333.206522 165.57151 
L 335.632609 164.731043 
L 338.058696 164.100693 
L 340.484783 163.596413 
L 345.336957 162.125596 
L 347.763043 161.915479 
L 350.18913 160.780849 
L 352.615217 160.402639 
L 355.041304 159.520148 
L 357.467391 159.183962 
L 359.893478 158.343495 
L 369.597826 155.906141 
L 372.023913 155.065674 
L 374.45 154.729487 
L 376.876087 154.01509 
L 379.302174 154.057113 
L 381.728261 153.804973 
L 384.154348 153.76295 
L 386.580435 153.973067 
L 389.006522 154.057113 
L 393.858696 153.76295 
L 396.284783 154.057113 
L 398.71087 153.931043 
L 401.136957 153.931043 
L 410.841304 150.022872 
L 413.267391 149.224429 
L 415.693478 148.173845 
L 418.119565 147.711588 
L 420.545652 146.072678 
L 425.397826 144.643884 
L 427.823913 143.383183 
L 432.676087 141.576179 
L 435.102174 140.399526 
L 437.528261 140.147386 
L 439.954348 138.424429 
L 442.380435 137.920148 
L 444.806522 136.995635 
L 447.232609 135.776958 
L 449.658696 135.398748 
L 452.084783 134.726374 
L 454.51087 142.038436 
L 456.936957 133.087464 
L 459.363043 134.558281 
L 461.78913 134.810421 
L 464.215217 134.936491 
L 466.641304 135.272678 
L 469.067391 134.558281 
L 471.493478 135.020537 
L 473.919565 134.768397 
L 476.345652 133.213534 
L 478.771739 132.66723 
L 481.197826 130.860226 
L 483.623913 130.734156 
L 486.05 126.952055 
L 488.476087 127.498358 
L 490.902174 126.573845 
L 493.328261 128.759059 
L 495.754348 123.590187 
L 498.180435 122.62365 
L 503.032609 117.959059 
L 505.458696 121.446997 
L 507.884783 119.345829 
L 510.31087 114.933378 
L 512.736957 116.740382 
L 515.163043 116.698358 
L 517.58913 111.655557 
L 520.015217 113.252444 
L 522.441304 139.138825 
L 524.867391 95.056335 
L 527.293478 131.952833 
L 529.719565 100.51937 
L 532.145652 127.708475 
L 534.571739 94.383962 
L 536.997826 126.489798 
L 539.423913 97.745829 
L 541.85 126.699915 
L 544.276087 100.26723 
L 546.702174 122.665674 
L 549.128261 96.989409 
L 551.554348 117.286685 
L 553.980435 93.795635 
L 556.406522 102.662561 
L 558.832609 101.485907 
L 561.258696 98.166063 
L 563.684783 122.959837 
L 566.11087 77.448553 
L 568.536957 115.269565 
L 570.963043 72.405751 
L 573.38913 134.390187 
L 575.815217 51.141938 
L 578.241304 138.298358 
L 580.667391 40.425985 
L 583.093478 131.826763 
L 585.519565 40.972288 
L 587.945652 118.085129 
L 590.371739 176.24544 
L 592.797826 139.138825 
L 595.223913 168.218981 
L 597.65 166.958281 
L 600.076087 140.945829 
L 602.502174 161.453222 
L 604.928261 136.323261 
L 607.354348 144.517814 
L 609.780435 143.84544 
L 612.206522 120.270343 
L 614.632609 170.992522 
L 614.632609 170.992522 
" clip-path="url(#p9a18c8b900)" style="fill: none; stroke: #d62728; stroke-width: 1.5; stroke-linecap: square"/>
   </g>
   <g id="line2d_19">
    <path d="M 39.65 181.078125 
L 51.780435 180.741938 
L 61.484783 180.489798 
L 73.615217 180.153611 
L 95.45 179.859448 
L 112.432609 179.775401 
L 134.267391 179.103028 
L 136.693478 179.103028 
L 139.119565 178.934934 
L 141.545652 178.934934 
L 146.397826 178.724818 
L 156.102174 178.472678 
L 160.954348 178.388631 
L 163.380435 178.430654 
L 165.806522 178.346607 
L 173.084783 178.388631 
L 182.78913 178.346607 
L 194.919565 177.422094 
L 199.771739 176.959837 
L 202.197826 176.833767 
L 207.05 176.37151 
L 209.476087 176.24544 
L 214.328261 175.74116 
L 216.754348 175.657113 
L 219.180435 175.36295 
L 221.606522 175.278903 
L 224.032609 174.98474 
L 233.736957 174.396413 
L 238.58913 174.48046 
L 241.015217 174.396413 
L 245.867391 174.48046 
L 248.293478 174.396413 
L 255.571739 174.438436 
L 257.997826 173.976179 
L 260.423913 173.682016 
L 262.85 173.177736 
L 265.276087 172.883572 
L 267.702174 172.421316 
L 274.980435 171.370732 
L 277.406522 170.866452 
L 279.832609 170.614312 
L 282.258696 170.110032 
L 289.536957 168.975401 
L 291.963043 168.723261 
L 294.38913 168.092911 
L 304.093478 166.706141 
L 328.354348 166.706141 
L 333.206522 165.361393 
L 347.763043 161.579292 
L 350.18913 160.822872 
L 355.041304 159.604195 
L 357.467391 159.183962 
L 359.893478 158.259448 
L 362.319565 157.755168 
L 364.745652 156.872678 
L 367.171739 156.620537 
L 369.597826 155.696024 
L 372.023913 155.02365 
L 374.45 154.77151 
L 376.876087 153.720927 
L 379.302174 153.931043 
L 381.728261 154.01509 
L 389.006522 153.931043 
L 393.858696 153.973067 
L 396.284783 153.804973 
L 401.136957 153.973067 
L 403.563043 153.090576 
L 405.98913 151.661783 
L 408.415217 150.989409 
L 410.841304 149.938825 
L 413.267391 149.182405 
L 415.693478 148.131821 
L 418.119565 147.291355 
L 420.545652 146.114701 
L 425.397826 144.34972 
L 427.823913 143.131043 
L 432.676087 141.912366 
L 435.102174 140.105362 
L 437.528261 140.105362 
L 439.954348 138.130265 
L 442.380435 137.583962 
L 444.806522 136.869565 
L 447.232609 135.692911 
L 449.658696 135.020537 
L 452.084783 134.894467 
L 454.51087 135.062561 
L 456.936957 134.684351 
L 459.363043 135.272678 
L 461.78913 139.811199 
L 464.215217 139.222872 
L 466.641304 133.465674 
L 469.067391 135.020537 
L 471.493478 134.516257 
L 473.919565 136.575401 
L 476.345652 131.952833 
L 478.771739 132.41509 
L 481.197826 130.692133 
L 483.623913 130.944273 
L 488.476087 126.363728 
L 490.902174 124.934934 
L 493.328261 127.456335 
L 495.754348 123.211977 
L 498.180435 120.98474 
L 500.606522 120.900693 
L 503.032609 124.178514 
L 505.458696 114.387074 
L 507.884783 120.564506 
L 510.31087 127.204195 
L 512.736957 134.978514 
L 515.163043 101.696024 
L 517.58913 129.557502 
L 520.015217 99.973067 
L 522.441304 120.522483 
L 524.867391 101.27579 
L 527.293478 112.07579 
L 529.719565 114.639214 
L 532.145652 112.496024 
L 534.571739 112.411977 
L 536.997826 109.176179 
L 539.423913 111.739604 
L 541.85 109.764506 
L 544.276087 110.31081 
L 546.702174 107.579292 
L 549.128261 125.943495 
L 551.554348 90.854 
L 553.980435 144.60186 
L 556.406522 69.506141 
L 558.832609 138.970732 
L 561.258696 65.051666 
L 563.684783 131.364506 
L 566.11087 62.110032 
L 568.536957 135.650888 
L 570.963043 54.293689 
L 573.38913 132.120927 
L 575.815217 60.261004 
L 578.241304 119.429876 
L 580.667391 60.933378 
L 583.093478 107.201082 
L 585.519565 133.04544 
L 587.945652 150.737269 
L 590.371739 162.966063 
L 592.797826 166.454 
L 595.223913 150.863339 
L 597.65 146.997191 
L 600.076087 151.367619 
L 602.502174 139.811199 
L 604.928261 155.611977 
L 607.354348 138.802639 
L 609.780435 153.174623 
L 612.206522 153.720927 
L 614.632609 166.706141 
L 614.632609 166.706141 
" clip-path="url(#p9a18c8b900)" style="fill: none; stroke: #9467bd; stroke-width: 1.5; stroke-linecap: square"/>
   </g>
   <g id="line2d_20">
    <path d="M 39.65 180.994078 
L 42.076087 180.994078 
L 44.502174 180.868008 
L 46.928261 180.868008 
L 51.780435 180.699915 
L 61.484783 180.447775 
L 71.18913 180.195635 
L 80.893478 179.943495 
L 85.745652 179.859448 
L 88.171739 179.901471 
L 90.597826 179.817425 
L 95.45 179.901471 
L 97.876087 179.817425 
L 100.302174 179.901471 
L 105.154348 179.817425 
L 107.580435 179.901471 
L 129.415217 179.229098 
L 136.693478 179.018981 
L 156.102174 178.388631 
L 158.528261 178.430654 
L 160.954348 178.346607 
L 168.232609 178.388631 
L 182.78913 178.304584 
L 185.215217 178.052444 
L 187.641304 177.926374 
L 190.067391 177.632211 
L 194.919565 177.296024 
L 197.345652 177.043884 
L 199.771739 176.917814 
L 202.197826 176.665674 
L 207.05 176.329487 
L 209.476087 176.035323 
L 214.328261 175.74116 
L 228.884783 174.522483 
L 231.31087 174.396413 
L 233.736957 174.48046 
L 236.163043 174.35439 
L 238.58913 174.48046 
L 241.015217 174.396413 
L 243.441304 174.48046 
L 248.293478 174.396413 
L 250.719565 174.522483 
L 255.571739 174.186296 
L 260.423913 173.471899 
L 262.85 173.009643 
L 270.128261 171.917036 
L 277.406522 170.740382 
L 289.536957 168.765285 
L 294.38913 168.008864 
L 299.241304 167.336491 
L 301.667391 166.832211 
L 308.945652 166.664117 
L 313.797826 166.748164 
L 316.223913 166.622094 
L 318.65 166.832211 
L 321.076087 166.622094 
L 323.502174 166.748164 
L 325.928261 166.664117 
L 328.354348 166.369954 
L 330.780435 165.613534 
L 333.206522 165.109253 
L 335.632609 164.478903 
L 338.058696 163.722483 
L 340.484783 163.218203 
L 342.91087 162.461783 
L 345.336957 161.831432 
L 347.763043 161.327152 
L 350.18913 160.528709 
L 355.041304 159.394078 
L 357.467391 158.595635 
L 359.893478 158.091355 
L 362.319565 157.461004 
L 364.745652 156.620537 
L 367.171739 156.242327 
L 369.597826 155.40186 
L 372.023913 154.939604 
L 374.45 154.099137 
L 376.876087 154.01509 
L 379.302174 153.804973 
L 381.728261 154.057113 
L 384.154348 153.88902 
L 386.580435 153.846997 
L 389.006522 154.14116 
L 391.432609 153.846997 
L 393.858696 153.804973 
L 396.284783 154.099137 
L 398.71087 153.720927 
L 401.136957 153.51081 
L 403.563043 152.376179 
L 405.98913 151.577736 
L 408.415217 150.611199 
L 410.841304 149.434545 
L 413.267391 148.678125 
L 415.693478 147.585518 
L 418.119565 146.661004 
L 422.971739 145.064117 
L 425.397826 143.383183 
L 427.823913 143.08902 
L 430.25 142.122483 
L 435.102174 139.895246 
L 437.528261 139.306919 
L 439.954348 137.962172 
L 442.380435 137.205751 
L 444.806522 136.113144 
L 447.232609 135.482794 
L 449.658696 135.104584 
L 452.084783 134.600304 
L 456.936957 135.314701 
L 459.363043 134.516257 
L 461.78913 135.272678 
L 464.215217 134.600304 
L 466.641304 135.062561 
L 469.067391 134.558281 
L 471.493478 135.146607 
L 473.919565 134.096024 
L 476.345652 132.66723 
L 478.771739 131.574623 
L 481.197826 130.145829 
L 483.623913 129.011199 
L 486.05 127.330265 
L 488.476087 126.027541 
L 490.902174 125.103028 
L 493.328261 123.211977 
L 495.754348 122.49758 
L 498.180435 120.774623 
L 500.606522 119.345829 
L 503.032609 118.715479 
L 505.458696 116.572288 
L 507.884783 115.773845 
L 510.31087 114.345051 
L 512.736957 113.672678 
L 515.163043 111.06723 
L 517.58913 109.470343 
L 520.015217 109.596413 
L 522.441304 108.209643 
L 524.867391 108.587853 
L 527.293478 108.293689 
L 532.145652 108.251666 
L 534.571739 108.503806 
L 536.997826 108.083572 
L 539.423913 108.671899 
L 541.85 108.209643 
L 544.276087 108.629876 
L 546.702174 107.705362 
L 549.128261 105.015868 
L 551.554348 104.301471 
L 553.980435 101.611977 
L 558.832609 98.796413 
L 561.258696 96.611199 
L 563.684783 95.182405 
L 566.11087 93.333378 
L 568.536957 91.148164 
L 570.963043 89.677347 
L 573.38913 87.870343 
L 575.815217 86.567619 
L 578.241304 84.256335 
L 580.667391 82.827541 
L 583.093478 80.348164 
L 585.519565 78.835323 
L 587.945652 78.120927 
L 590.371739 75.515479 
L 592.797826 73.456335 
L 595.223913 73.666452 
L 597.65 72.489798 
L 600.076087 73.456335 
L 602.502174 74.254779 
L 604.928261 72.279681 
L 607.354348 111.487464 
L 609.780435 107.999526 
L 612.206522 69.884351 
L 614.632609 64.085129 
L 617.058696 72.573845 
L 619.484783 72.237658 
L 621.91087 69.548164 
L 624.336957 67.36295 
L 626.763043 64.505362 
L 629.18913 64.589409 
L 631.615217 76.313923 
L 634.041304 46.813534 
L 636.467391 49.503028 
L 638.893478 55.470343 
L 641.319565 68.329487 
L 643.745652 52.024429 
L 646.171739 42.779292 
L 648.597826 52.654779 
L 651.023913 43.451666 
L 653.45 51.814312 
L 655.876087 68.24544 
L 658.302174 60.555168 
L 660.728261 29.878125 
L 663.154348 74.717036 
L 665.580435 89.929487 
L 668.006522 75.179292 
L 670.432609 50.931821 
L 672.858696 83.499915 
L 675.284783 124.388631 
L 677.71087 112.580071 
L 680.136957 135.272678 
L 682.563043 155.02365 
L 684.98913 159.814312 
L 687.415217 146.450888 
L 689.841304 115.311588 
L 692.267391 170.572288 
L 694.693478 129.095246 
L 697.119565 121.446997 
L 699.545652 152.964506 
L 701.971739 122.791744 
L 704.397826 145.400304 
L 706.823913 154.351277 
L 709.25 126.615868 
L 709.25 126.615868 
" clip-path="url(#p9a18c8b900)" style="fill: none; stroke: #8c564b; stroke-width: 1.5; stroke-linecap: square"/>
   </g>
   <g id="patch_3">
    <path d="M 39.65 188.638125 
L 39.65 22.318125 
" style="fill: none; stroke: #000000; stroke-width: 0.8; stroke-linejoin: miter; stroke-linecap: square"/>
   </g>
   <g id="patch_4">
    <path d="M 709.25 188.638125 
L 709.25 22.318125 
" style="fill: none; stroke: #000000; stroke-width: 0.8; stroke-linejoin: miter; stroke-linecap: square"/>
   </g>
   <g id="patch_5">
    <path d="M 39.65 188.638125 
L 709.25 188.638125 
" style="fill: none; stroke: #000000; stroke-width: 0.8; stroke-linejoin: miter; stroke-linecap: square"/>
   </g>
   <g id="patch_6">
    <path d="M 39.65 22.318125 
L 709.25 22.318125 
" style="fill: none; stroke: #000000; stroke-width: 0.8; stroke-linejoin: miter; stroke-linecap: square"/>
   </g>
   <g id="text_16">
    <!-- Requests per second -->
    <g transform="translate(311.771563 16.318125) scale(0.12 -0.12)">
     <defs>
      <path id="DejaVuSans-52" d="M 2841 2188 
Q 3044 2119 3236 1894 
Q 3428 1669 3622 1275 
L 4263 0 
L 3584 0 
L 2988 1197 
Q 2756 1666 2539 1819 
Q 2322 1972 1947 1972 
L 1259 1972 
L 1259 0 
L 628 0 
L 628 4666 
L 2053 4666 
Q 2853 4666 3247 4331 
Q 3641 3997 3641 3322 
Q 3641 2881 3436 2590 
Q 3231 2300 2841 2188 
z
M 1259 4147 
L 1259 2491 
L 2053 2491 
Q 2509 2491 2742 2702 
Q 2975 2913 2975 3322 
Q 2975 3731 2742 3939 
Q 2509 4147 2053 4147 
L 1259 4147 
z
" transform="scale(0.015625)"/>
      <path id="DejaVuSans-71" d="M 947 1747 
Q 947 1113 1208 752 
Q 1469 391 1925 391 
Q 2381 391 2643 752 
Q 2906 1113 2906 1747 
Q 2906 2381 2643 2742 
Q 2381 3103 1925 3103 
Q 1469 3103 1208 2742 
Q 947 2381 947 1747 
z
M 2906 525 
Q 2725 213 2448 61 
Q 2172 -91 1784 -91 
Q 1150 -91 751 415 
Q 353 922 353 1747 
Q 353 2572 751 3078 
Q 1150 3584 1784 3584 
Q 2172 3584 2448 3432 
Q 2725 3281 2906 2969 
L 2906 3500 
L 3481 3500 
L 3481 -1331 
L 2906 -1331 
L 2906 525 
z
" transform="scale(0.015625)"/>
      <path id="DejaVuSans-75" d="M 544 1381 
L 544 3500 
L 1119 3500 
L 1119 1403 
Q 1119 906 1312 657 
Q 1506 409 1894 409 
Q 2359 409 2629 706 
Q 2900 1003 2900 1516 
L 2900 3500 
L 3475 3500 
L 3475 0 
L 2900 0 
L 2900 538 
Q 2691 219 2414 64 
Q 2138 -91 1772 -91 
Q 1169 -91 856 284 
Q 544 659 544 1381 
z
M 1991 3584 
L 1991 3584 
z
" transform="scale(0.015625)"/>
      <path id="DejaVuSans-73" d="M 2834 3397 
L 2834 2853 
Q 2591 2978 2328 3040 
Q 2066 3103 1784 3103 
Q 1356 3103 1142 2972 
Q 928 2841 928 2578 
Q 928 2378 1081 2264 
Q 1234 2150 1697 2047 
L 1894 2003 
Q 2506 1872 2764 1633 
Q 3022 1394 3022 966 
Q 3022 478 2636 193 
Q 2250 -91 1575 -91 
Q 1294 -91 989 -36 
Q 684 19 347 128 
L 347 722 
Q 666 556 975 473 
Q 1284 391 1588 391 
Q 1994 391 2212 530 
Q 2431 669 2431 922 
Q 2431 1156 2273 1281 
Q 2116 1406 1581 1522 
L 1381 1569 
Q 847 1681 609 1914 
Q 372 2147 372 2553 
Q 372 3047 722 3315 
Q 1072 3584 1716 3584 
Q 2034 3584 2315 3537 
Q 2597 3491 2834 3397 
z
" transform="scale(0.015625)"/>
      <path id="DejaVuSans-74" d="M 1172 4494 
L 1172 3500 
L 2356 3500 
L 2356 3053 
L 1172 3053 
L 1172 1153 
Q 1172 725 1289 603 
Q 1406 481 1766 481 
L 2356 481 
L 2356 0 
L 1766 0 
Q 1100 0 847 248 
Q 594 497 594 1153 
L 594 3053 
L 172 3053 
L 172 3500 
L 594 3500 
L 594 4494 
L 1172 4494 
z
" transform="scale(0.015625)"/>
      <path id="DejaVuSans-20" transform="scale(0.015625)"/>
      <path id="DejaVuSans-70" d="M 1159 525 
L 1159 -1331 
L 581 -1331 
L 581 3500 
L 1159 3500 
L 1159 2969 
Q 1341 3281 1617 3432 
Q 1894 3584 2278 3584 
Q 2916 3584 3314 3078 
Q 3713 2572 3713 1747 
Q 3713 922 3314 415 
Q 2916 -91 2278 -91 
Q 1894 -91 1617 61 
Q 1341 213 1159 525 
z
M 3116 1747 
Q 3116 2381 2855 2742 
Q 2594 3103 2138 3103 
Q 1681 3103 1420 2742 
Q 1159 2381 1159 1747 
Q 1159 1113 1420 752 
Q 1681 391 2138 391 
Q 2594 391 2855 752 
Q 3116 1113 3116 1747 
z
" transform="scale(0.015625)"/>
      <path id="DejaVuSans-72" d="M 2631 2963 
Q 2534 3019 2420 3045 
Q 2306 3072 2169 3072 
Q 1681 3072 1420 2755 
Q 1159 2438 1159 1844 
L 1159 0 
L 581 0 
L 581 3500 
L 1159 3500 
L 1159 2956 
Q 1341 3275 1631 3429 
Q 1922 3584 2338 3584 
Q 2397 3584 2469 3576 
Q 2541 3569 2628 3553 
L 2631 2963 
z
" transform="scale(0.015625)"/>
      <path id="DejaVuSans-63" d="M 3122 3366 
L 3122 2828 
Q 2878 2963 2633 3030 
Q 2388 3097 2138 3097 
Q 1578 3097 1268 2742 
Q 959 2388 959 1747 
Q 959 1106 1268 751 
Q 1578 397 2138 397 
Q 2388 397 2633 464 
Q 2878 531 3122 666 
L 3122 134 
Q 2881 22 2623 -34 
Q 2366 -91 2075 -91 
Q 1284 -91 818 406 
Q 353 903 353 1747 
Q 353 2603 823 3093 
Q 1294 3584 2113 3584 
Q 2378 3584 2631 3529 
Q 2884 3475 3122 3366 
z
" transform="scale(0.015625)"/>
      <path id="DejaVuSans-6f" d="M 1959 3097 
Q 1497 3097 1228 2736 
Q 959 2375 959 1747 
Q 959 1119 1226 758 
Q 1494 397 1959 397 
Q 2419 397 2687 759 
Q 2956 1122 2956 1747 
Q 2956 2369 2687 2733 
Q 2419 3097 1959 3097 
z
M 1959 3584 
Q 2709 3584 3137 3096 
Q 3566 2609 3566 1747 
Q 3566 888 3137 398 
Q 2709 -91 1959 -91 
Q 1206 -91 779 398 
Q 353 888 353 1747 
Q 353 2609 779 3096 
Q 1206 3584 1959 3584 
z
" transform="scale(0.015625)"/>
      <path id="DejaVuSans-6e" d="M 3513 2113 
L 3513 0 
L 2938 0 
L 2938 2094 
Q 2938 2591 2744 2837 
Q 2550 3084 2163 3084 
Q 1697 3084 1428 2787 
Q 1159 2491 1159 1978 
L 1159 0 
L 581 0 
L 581 3500 
L 1159 3500 
L 1159 2956 
Q 1366 3272 1645 3428 
Q 1925 3584 2291 3584 
Q 2894 3584 3203 3211 
Q 3513 2838 3513 2113 
z
" transform="scale(0.015625)"/>
      <path id="DejaVuSans-64" d="M 2906 2969 
L 2906 4863 
L 3481 4863 
L 3481 0 
L 2906 0 
L 2906 525 
Q 2725 213 2448 61 
Q 2172 -91 1784 -91 
Q 1150 -91 751 415 
Q 353 922 353 1747 
Q 353 2572 751 3078 
Q 1150 3584 1784 3584 
Q 2172 3584 2448 3432 
Q 2725 3281 2906 2969 
z
M 947 1747 
Q 947 1113 1208 752 
Q 1469 391 1925 391 
Q 2381 391 2643 752 
Q 2906 1113 2906 1747 
Q 2906 2381 2643 2742 
Q 2381 3103 1925 3103 
Q 1469 3103 1208 2742 
Q 947 2381 947 1747 
z
" transform="scale(0.015625)"/>
     </defs>
     <use xlink:href="#DejaVuSans-52"/>
     <use xlink:href="#DejaVuSans-65" x="64.982422"/>
     <use xlink:href="#DejaVuSans-71" x="126.505859"/>
     <use xlink:href="#DejaVuSans-75" x="189.982422"/>
     <use xlink:href="#DejaVuSans-65" x="253.361328"/>
     <use xlink:href="#DejaVuSans-73" x="314.884766"/>
     <use xlink:href="#DejaVuSans-74" x="366.984375"/>
     <use xlink:href="#DejaVuSans-73" x="406.193359"/>
     <use xlink:href="#DejaVuSans-20" x="458.292969"/>
     <use xlink:href="#DejaVuSans-70" x="490.080078"/>
     <use xlink:href="#DejaVuSans-65" x="553.556641"/>
     <use xlink:href="#DejaVuSans-72" x="615.080078"/>
     <use xlink:href="#DejaVuSans-20" x="656.193359"/>
     <use xlink:href="#DejaVuSans-73" x="687.980469"/>
     <use xlink:href="#DejaVuSans-65" x="740.080078"/>
     <use xlink:href="#DejaVuSans-63" x="801.603516"/>
     <use xlink:href="#DejaVuSans-6f" x="856.583984"/>
     <use xlink:href="#DejaVuSans-6e" x="917.765625"/>
     <use xlink:href="#DejaVuSans-64" x="981.144531"/>
    </g>
   </g>
   <g id="legend_1">
    <g id="patch_7">
     <path d="M 46.65 118.386875 
L 117.823438 118.386875 
Q 119.823438 118.386875 119.823438 116.386875 
L 119.823438 29.318125 
Q 119.823438 27.318125 117.823438 27.318125 
L 46.65 27.318125 
Q 44.65 27.318125 44.65 29.318125 
L 44.65 116.386875 
Q 44.65 118.386875 46.65 118.386875 
z
" style="fill: #ffffff; opacity: 0.8; stroke: #cccccc; stroke-linejoin: miter"/>
    </g>
    <g id="line2d_21">
     <path d="M 48.65 35.416562 
L 58.65 35.416562 
L 68.65 35.416562 
" style="fill: none; stroke: #1f77b4; stroke-width: 1.5; stroke-linecap: square"/>
    </g>
    <g id="text_17">
     <!-- php -->
     <g transform="translate(76.65 38.916562) scale(0.1 -0.1)">
      <defs>
       <path id="DejaVuSans-68" d="M 3513 2113 
L 3513 0 
L 2938 0 
L 2938 2094 
Q 2938 2591 2744 2837 
Q 2550 3084 2163 3084 
Q 1697 3084 1428 2787 
Q 1159 2491 1159 1978 
L 1159 0 
L 581 0 
L 581 4863 
L 1159 4863 
L 1159 2956 
Q 1366 3272 1645 3428 
Q 1925 3584 2291 3584 
Q 2894 3584 3203 3211 
Q 3513 2838 3513 2113 
z
" transform="scale(0.015625)"/>
      </defs>
      <use xlink:href="#DejaVuSans-70"/>
      <use xlink:href="#DejaVuSans-68" x="63.476562"/>
      <use xlink:href="#DejaVuSans-70" x="126.855469"/>
     </g>
    </g>
    <g id="line2d_22">
     <path d="M 48.65 50.094687 
L 58.65 50.094687 
L 68.65 50.094687 
" style="fill: none; stroke: #ff7f0e; stroke-width: 1.5; stroke-linecap: square"/>
    </g>
    <g id="text_18">
     <!-- python -->
     <g transform="translate(76.65 53.594687) scale(0.1 -0.1)">
      <defs>
       <path id="DejaVuSans-79" d="M 2059 -325 
Q 1816 -950 1584 -1140 
Q 1353 -1331 966 -1331 
L 506 -1331 
L 506 -850 
L 844 -850 
Q 1081 -850 1212 -737 
Q 1344 -625 1503 -206 
L 1606 56 
L 191 3500 
L 800 3500 
L 1894 763 
L 2988 3500 
L 3597 3500 
L 2059 -325 
z
" transform="scale(0.015625)"/>
      </defs>
      <use xlink:href="#DejaVuSans-70"/>
      <use xlink:href="#DejaVuSans-79" x="63.476562"/>
      <use xlink:href="#DejaVuSans-74" x="122.65625"/>
      <use xlink:href="#DejaVuSans-68" x="161.865234"/>
      <use xlink:href="#DejaVuSans-6f" x="225.244141"/>
      <use xlink:href="#DejaVuSans-6e" x="286.425781"/>
     </g>
    </g>
    <g id="line2d_23">
     <path d="M 48.65 64.772812 
L 58.65 64.772812 
L 68.65 64.772812 
" style="fill: none; stroke: #2ca02c; stroke-width: 1.5; stroke-linecap: square"/>
    </g>
    <g id="text_19">
     <!-- dotnet -->
     <g transform="translate(76.65 68.272812) scale(0.1 -0.1)">
      <use xlink:href="#DejaVuSans-64"/>
      <use xlink:href="#DejaVuSans-6f" x="63.476562"/>
      <use xlink:href="#DejaVuSans-74" x="124.658203"/>
      <use xlink:href="#DejaVuSans-6e" x="163.867188"/>
      <use xlink:href="#DejaVuSans-65" x="227.246094"/>
      <use xlink:href="#DejaVuSans-74" x="288.769531"/>
     </g>
    </g>
    <g id="line2d_24">
     <path d="M 48.65 79.450938 
L 58.65 79.450938 
L 68.65 79.450938 
" style="fill: none; stroke: #d62728; stroke-width: 1.5; stroke-linecap: square"/>
    </g>
    <g id="text_20">
     <!-- go -->
     <g transform="translate(76.65 82.950938) scale(0.1 -0.1)">
      <defs>
       <path id="DejaVuSans-67" d="M 2906 1791 
Q 2906 2416 2648 2759 
Q 2391 3103 1925 3103 
Q 1463 3103 1205 2759 
Q 947 2416 947 1791 
Q 947 1169 1205 825 
Q 1463 481 1925 481 
Q 2391 481 2648 825 
Q 2906 1169 2906 1791 
z
M 3481 434 
Q 3481 -459 3084 -895 
Q 2688 -1331 1869 -1331 
Q 1566 -1331 1297 -1286 
Q 1028 -1241 775 -1147 
L 775 -588 
Q 1028 -725 1275 -790 
Q 1522 -856 1778 -856 
Q 2344 -856 2625 -561 
Q 2906 -266 2906 331 
L 2906 616 
Q 2728 306 2450 153 
Q 2172 0 1784 0 
Q 1141 0 747 490 
Q 353 981 353 1791 
Q 353 2603 747 3093 
Q 1141 3584 1784 3584 
Q 2172 3584 2450 3431 
Q 2728 3278 2906 2969 
L 2906 3500 
L 3481 3500 
L 3481 434 
z
" transform="scale(0.015625)"/>
      </defs>
      <use xlink:href="#DejaVuSans-67"/>
      <use xlink:href="#DejaVuSans-6f" x="63.476562"/>
     </g>
    </g>
    <g id="line2d_25">
     <path d="M 48.65 94.129063 
L 58.65 94.129063 
L 68.65 94.129063 
" style="fill: none; stroke: #9467bd; stroke-width: 1.5; stroke-linecap: square"/>
    </g>
    <g id="text_21">
     <!-- go-fiber -->
     <g transform="translate(76.65 97.629063) scale(0.1 -0.1)">
      <defs>
       <path id="DejaVuSans-2d" d="M 313 2009 
L 1997 2009 
L 1997 1497 
L 313 1497 
L 313 2009 
z
" transform="scale(0.015625)"/>
       <path id="DejaVuSans-66" d="M 2375 4863 
L 2375 4384 
L 1825 4384 
Q 1516 4384 1395 4259 
Q 1275 4134 1275 3809 
L 1275 3500 
L 2222 3500 
L 2222 3053 
L 1275 3053 
L 1275 0 
L 697 0 
L 697 3053 
L 147 3053 
L 147 3500 
L 697 3500 
L 697 3744 
Q 697 4328 969 4595 
Q 1241 4863 1831 4863 
L 2375 4863 
z
" transform="scale(0.015625)"/>
       <path id="DejaVuSans-62" d="M 3116 1747 
Q 3116 2381 2855 2742 
Q 2594 3103 2138 3103 
Q 1681 3103 1420 2742 
Q 1159 2381 1159 1747 
Q 1159 1113 1420 752 
Q 1681 391 2138 391 
Q 2594 391 2855 752 
Q 3116 1113 3116 1747 
z
M 1159 2969 
Q 1341 3281 1617 3432 
Q 1894 3584 2278 3584 
Q 2916 3584 3314 3078 
Q 3713 2572 3713 1747 
Q 3713 922 3314 415 
Q 2916 -91 2278 -91 
Q 1894 -91 1617 61 
Q 1341 213 1159 525 
L 1159 0 
L 581 0 
L 581 4863 
L 1159 4863 
L 1159 2969 
z
" transform="scale(0.015625)"/>
      </defs>
      <use xlink:href="#DejaVuSans-67"/>
      <use xlink:href="#DejaVuSans-6f" x="63.476562"/>
      <use xlink:href="#DejaVuSans-2d" x="126.533203"/>
      <use xlink:href="#DejaVuSans-66" x="162.617188"/>
      <use xlink:href="#DejaVuSans-69" x="197.822266"/>
      <use xlink:href="#DejaVuSans-62" x="225.605469"/>
      <use xlink:href="#DejaVuSans-65" x="289.082031"/>
      <use xlink:href="#DejaVuSans-72" x="350.605469"/>
     </g>
    </g>
    <g id="line2d_26">
     <path d="M 48.65 108.807187 
L 58.65 108.807187 
L 68.65 108.807187 
" style="fill: none; stroke: #8c564b; stroke-width: 1.5; stroke-linecap: square"/>
    </g>
    <g id="text_22">
     <!-- rust -->
     <g transform="translate(76.65 112.307187) scale(0.1 -0.1)">
      <use xlink:href="#DejaVuSans-72"/>
      <use xlink:href="#DejaVuSans-75" x="41.113281"/>
      <use xlink:href="#DejaVuSans-73" x="104.492188"/>
      <use xlink:href="#DejaVuSans-74" x="156.591797"/>
     </g>
    </g>
   </g>
  </g>
 </g>
 <defs>
  <clipPath id="p9a18c8b900">
   <rect x="39.65" y="22.318125" width="669.6" height="166.32"/>
  </clipPath>
 </defs>
</svg>
